<?xml version="1.0" encoding="utf-8"?>
<!-- Generator: Adobe Illustrator 21.1.0, SVG Export Plug-In . SVG Version: 6.00 Build 0)  -->
<!DOCTYPE svg PUBLIC "-//W3C//DTD SVG 1.1//EN" "http://www.w3.org/Graphics/SVG/1.1/DTD/svg11.dtd">
<svg version="1.1" id="Layer_1" xmlns="http://www.w3.org/2000/svg" xmlns:xlink="http://www.w3.org/1999/xlink" x="0px" y="0px"
	 width="99.7px" height="99px" viewBox="0 0 99.7 99" style="enable-background:new 0 0 99.7 99;" xml:space="preserve">
<style type="text/css">
	.st0{fill:#85468B;}
</style>
<g>
	<g>
		<path class="st0" d="M39.7,7.6l8.1,3.9l2.1,1l2.1-1L60,7.6l5.4,7.2l1.4,1.8l2.3,0.1l9,0.3l1.4,8.9l0.4,2.2l2,1.1l7.8,4.5l-2.8,8.5
			L86,44.5l1.2,1.9L92,54l-6.5,6.2l-1.6,1.6l0.2,2.3l0.7,9l-8.6,2.5L74,76.1l-0.9,2.1l-3.5,8.3l-8.8-1.8l-2.2-0.5l-1.8,1.4l-6.9,5.7
			l-6.9-5.7l-1.8-1.4l-2.2,0.5l-8.8,1.8l-3.5-8.3l-0.9-2.1l-2.2-0.6L14.9,73l0.7-9l0.2-2.3l-1.6-1.6L7.7,54l4.8-7.6l1.2-1.9L13,42.3
			l-2.8-8.5l7.8-4.5l2-1.1l0.4-2.2l1.4-8.9l8.9-0.3l2.3-0.1l1.4-1.8L39.7,7.6 M60.6,2.4c-0.4,0-0.9,0.1-1.3,0.3l-9.4,4.5l-9.4-4.5
			c-0.4-0.2-0.9-0.3-1.3-0.3c-0.9,0-1.8,0.4-2.4,1.2L30.5,12L20,12.4c-1.4,0.1-2.6,1.1-2.8,2.5l-1.7,10.3l-9.1,5.2
			c-1.2,0.7-1.8,2.2-1.3,3.5l3.3,9.9l-5.6,8.8c-0.8,1.2-0.6,2.8,0.5,3.8l7.5,7.2L10,74.1c-0.1,1.4,0.8,2.7,2.1,3.1l10,2.9l4.1,9.6
			c0.5,1.1,1.6,1.8,2.7,1.8c0.2,0,0.4,0,0.6-0.1l10.2-2.1l8.1,6.6c0.6,0.4,1.2,0.7,1.9,0.7c0.7,0,1.3-0.2,1.9-0.7l8.1-6.6l10.2,2.1
			c0.2,0,0.4,0.1,0.6,0.1c1.2,0,2.3-0.7,2.8-1.8l4.1-9.6l10-2.9c1.4-0.4,2.3-1.7,2.1-3.1l-0.8-10.4l7.5-7.2c1-1,1.2-2.5,0.5-3.8
			l-5.6-8.8l3.3-9.9c0.4-1.3-0.1-2.8-1.3-3.5l-9.1-5.2l-1.7-10.3c-0.2-1.4-1.4-2.5-2.8-2.5L69.2,12l-6.3-8.4
			C62.4,2.8,61.5,2.4,60.6,2.4L60.6,2.4z"/>
	</g>
	<polygon class="st0" points="47.6,65 33.1,51 36.8,47.2 46.8,56.8 61.5,35.6 65.9,38.7 	"/>
</g>
<g>
</g>
<g>
</g>
<g>
</g>
<g>
</g>
<g>
</g>
<g>
</g>
</svg>
