<?xml version="1.0" encoding="utf-8"?>
<!-- Generator: Adobe Illustrator 21.1.0, SVG Export Plug-In . SVG Version: 6.00 Build 0)  -->
<!DOCTYPE svg PUBLIC "-//W3C//DTD SVG 1.1//EN" "http://www.w3.org/Graphics/SVG/1.1/DTD/svg11.dtd">
<svg version="1.1" id="Layer_1" xmlns="http://www.w3.org/2000/svg" xmlns:xlink="http://www.w3.org/1999/xlink" x="0px" y="0px"
	 width="64.3px" height="74.9px" viewBox="0 0 64.3 74.9" style="enable-background:new 0 0 64.3 74.9;" xml:space="preserve">
<style type="text/css">
	.st0{fill:#85468B;}
	.st1{fill:#FFFFFF;}
</style>
<path class="st0" d="M24,5.3c1.5,0,2.7,1.2,2.7,2.7v18.7v10.7H32V26.7c0-1.5,1.2-2.7,2.7-2.7s2.7,1.2,2.7,2.7v10.7h5.3V26.7
	c0-1.5,1.2-2.7,2.7-2.7s2.7,1.2,2.7,2.7v10.7h0.2h5.1h0.2v-5.3c0-1.5,1.2-2.7,2.7-2.7c1.5,0,2.7,1.2,2.7,2.7V53
	c0,9.3-7.3,16.6-16.5,16.6h-4.6c-3.9,0-7.3-1.4-10.1-3.5L6.1,44.6c-1.2-1.2-1.2-2.5,0-3.7c1.2-1.2,2.5-1.2,3.7,0l6.9,6.9l4.6,4.6V46
	V8C21.3,6.5,22.5,5.3,24,5.3z M24,0c-4.4,0-8,3.6-8,8v31.6l-1.8-1.8l-0.7-0.6c-3.1-3.1-8.1-3.1-11.2,0c-3.1,3.1-3.1,8.1,0,11.2v0.1
	l21.9,21.6l0.2,0.1l0.1,0.2c3.6,2.7,8.2,4.5,13.4,4.5h4.6c12.1,0,21.9-9.8,21.9-21.9V32.1c0-4.4-3.6-8-8-8c-1.1,0-2.2,0.3-3.2,0.8
	c-0.9-3.5-4-6.1-7.8-6.1c-2,0-3.9,0.8-5.3,2.1c-1.4-1.3-3.3-2.1-5.3-2.1c-0.9,0-1.8,0.2-2.7,0.5V8C32,3.6,28.4,0,24,0z"/>
</svg>
