<?xml version="1.0" encoding="utf-8"?>
<!-- Generator: Adobe Illustrator 22.0.1, SVG Export Plug-In . SVG Version: 6.00 Build 0)  -->
<svg version="1.1" xmlns="http://www.w3.org/2000/svg" xmlns:xlink="http://www.w3.org/1999/xlink" x="0px" y="0px"
	 viewBox="0 0 84 84" style="enable-background:new 0 0 84 84;" xml:space="preserve">
<style type="text/css">
	.st0{display:none;}
	.st1{display:inline;}
	.st2{fill:#85458A;}
</style>
<g id="Layer_1" class="st0">
	<g class="st1">
		<path class="st2" d="M7.1,60.5c-0.9,0-1.7,0.7-1.7,1.7l0,19.9c0,0.9,0.7,1.7,1.7,1.7l19.9,0c0.9,0,1.7-0.7,1.7-1.7l0-19.9
			c0-0.9-0.7-1.7-1.7-1.7H7.1z M22.5,36.1l2.5,2.2l-8.6,9.6l-7.1-6.1l2.2-2.5l4.6,3.9L22.5,36.1z M7.1,30.6c-0.9,0-1.7,0.7-1.7,1.7
			l0,19.9c0,0.9,0.7,1.7,1.7,1.7h19.9c0.9,0,1.7-0.7,1.7-1.7l0-19.9c0-0.9-0.7-1.7-1.7-1.7L7.1,30.6z M22.5,6.2L25,8.4l-8.6,9.6
			l-7.1-6.1l2.2-2.5l4.6,3.9L22.5,6.2z M7.1,0.6c-0.9,0-1.7,0.7-1.7,1.7l0,19.9c0,0.9,0.7,1.7,1.7,1.7l19.9,0c0.9,0,1.7-0.7,1.7-1.7
			l0-19.9c0-0.9-0.7-1.7-1.7-1.7L7.1,0.6z"/>
		<path class="st2" d="M76.5,9.7H41.7c-1.1,0-1.9,0.9-1.9,1.9v1c0,1.1,0.9,1.9,1.9,1.9h34.8c1.1,0,1.9-0.9,1.9-1.9v-1
			C78.4,10.6,77.6,9.7,76.5,9.7z"/>
		<path class="st2" d="M76.5,39.5H41.7c-1.1,0-1.9,0.9-1.9,1.9v1c0,1.1,0.9,1.9,1.9,1.9h34.8c1.1,0,1.9-0.9,1.9-1.9v-1
			C78.4,40.4,77.6,39.5,76.5,39.5z"/>
		<path class="st2" d="M76.5,69.3H41.7c-1.1,0-1.9,0.9-1.9,1.9v1c0,1.1,0.9,1.9,1.9,1.9h34.8c1.1,0,1.9-0.9,1.9-1.9v-1
			C78.4,70.1,77.6,69.3,76.5,69.3z"/>
	</g>
</g>
<g id="Layer_2" class="st0">
	<g class="st1">
		<path class="st2" d="M38.9,34.7c-1.7,0.7-3,2.2-3.5,4.1c-0.9,3.4,1.1,6.9,4.5,7.9c1.9,0.5,3.8,0.1,5.3-0.9c0,0,0.4-0.3,0.4-0.3
			c0,0,0.1,0,0.1-0.1c1-0.7,34.4-25.2,33.7-26.4C78.7,17.7,38.9,34.7,38.9,34.7z"/>
		<path class="st2" d="M51.4,20.4c-2.3-2.1-5.1-3.7-8.2-4.7c-3.1-1-6.4-1.4-9.8-1c-0.3,0-0.5-0.2-0.6-0.5c0-0.3,0.1-0.5,0.4-0.6
			c3.4-1.1,7-1.5,10.7-1.1c3.7,0.4,7.3,1.5,10.6,3.5l0.1,0c1.3,0.7,1.7,2.4,1,3.7c-0.7,1.3-2.4,1.7-3.7,1
			C51.7,20.6,51.5,20.5,51.4,20.4z"/>
		<path class="st2" d="M64.3,14.6c-1.8-1.8-3.8-3.5-5.9-4.9c-2.2-1.4-4.5-2.6-7-3.6c-4.9-1.9-10.3-2.7-15.7-2.3
			c-0.3,0-0.6-0.2-0.6-0.5c0-0.3,0.2-0.5,0.4-0.6C41,1.6,46.8,1.6,52.4,2.9c2.8,0.7,5.5,1.6,8.2,2.9c2.6,1.3,5.1,2.8,7.4,4.7l0,0
			c1.2,0.9,1.4,2.7,0.5,3.9c-0.9,1.2-2.7,1.4-3.9,0.5C64.5,14.8,64.4,14.7,64.3,14.6z"/>
		<path class="st2" d="M42,82.5C19.1,82.5,0.5,63.9,0.5,41c0-14.5,7.7-28.1,20.2-35.6c1.9-1.1,4.3-0.5,5.4,1.3
			c1.1,1.9,0.5,4.3-1.3,5.4C14.4,18.3,8.3,29.1,8.3,41c0,18.5,15.1,33.6,33.6,33.6c18.5,0,33.6-15.1,33.6-33.6
			c0-1.9-0.2-3.7-0.5-5.6c-0.4-2.1,1.1-4.2,3.2-4.5c2.1-0.4,4.2,1.1,4.5,3.2c0.4,2.3,0.6,4.6,0.6,6.9C83.5,63.9,64.8,82.5,42,82.5z"
			/>
	</g>
</g>
<g id="Layer_3" class="st0">
	<g class="st1">
		<path class="st2" d="M10.3,71h12.8c0.6,0,1.2-0.5,1.2-1.2V31c0-0.6-0.5-1.2-1.2-1.2H10.3c-0.6,0-1.2,0.5-1.2,1.2v38.9
			C9.1,70.5,9.7,71,10.3,71z"/>
		<path class="st2" d="M36.2,71h12.6c0.7,0,1.3-0.6,1.3-1.3V17.8c0-0.7-0.6-1.3-1.3-1.3H36.2c-0.7,0-1.3,0.6-1.3,1.3v51.9
			C35,70.4,35.5,71,36.2,71z"/>
		<path class="st2" d="M61.9,71h12.8c0.6,0,1.1-0.5,1.1-1.1V4.1c0-0.6-0.5-1.1-1.1-1.1H61.9c-0.6,0-1.1,0.5-1.1,1.1v65.8
			C60.8,70.5,61.3,71,61.9,71z"/>
		<path class="st2" d="M81.4,80.6H2.5c-1.1,0-2.1-0.9-2.1-2.1s0.9-2.1,2.1-2.1h78.8c1.1,0,2.1,0.9,2.1,2.1S82.5,80.6,81.4,80.6z"/>
	</g>
</g>
<g id="Layer_4">
	<path class="st2" d="M48.4,71.8l4.9,1l1,5l-6.5,1.9l-1.3-1.4L48.4,71.8z M62.1,54L46.3,69.7c-0.2,0.2-0.4,0.4-0.5,0.7L42.4,82
		c-0.1,0.5,0,1,0.4,1.4c0.3,0.3,0.6,0.4,1,0.4c0.1,0,0.3-0.1,0.4-0.1l11.5-3.4c0.3-0.1,0.5-0.2,0.7-0.4l15.8-15.7L62.1,54z M34.3,47
		v6.4h17l6.4-6.4H34.3z M22,47v6.4h6.4V47H22z M71.7,46c-0.9,0-1.7,0.3-2.4,1l-3.9,3.9l9.7,9.8l3.9-4c1.3-1.3,1.3-3.4,0-4.8L74.2,47
		C73.5,46.3,72.5,46,71.7,46z M34.3,34.2v6.4H58v-6.4H34.3z M22,34.2v6.4h6.4v-6.4H22z M34.3,21.4v6.4H58v-6.4H34.3z M22,21.4v6.4
		h6.4v-6.4H22z M10.2,0.9c-2,0-3.7,1.7-3.7,3.7v69.3c0,2,1.7,3.7,3.7,3.7H37l1.8-6.4h-26V7.9h54.7v32.8c1.3-0.6,2.8-1,4.3-1
		c0.7,0,1.4,0,2.1,0.2V4.6c0-2-1.7-3.7-3.7-3.7H10.2z"/>
	<g>
	</g>
	<g>
	</g>
	<g>
	</g>
	<g>
	</g>
	<g>
	</g>
	<g>
	</g>
	<g>
	</g>
	<g>
	</g>
	<g>
	</g>
	<g>
	</g>
	<g>
	</g>
	<g>
	</g>
	<g>
	</g>
	<g>
	</g>
	<g>
	</g>
</g>
</svg>
