<?xml version="1.0" encoding="utf-8"?>
<!-- Generator: Adobe Illustrator 21.1.0, SVG Export Plug-In . SVG Version: 6.00 Build 0)  -->
<!DOCTYPE svg PUBLIC "-//W3C//DTD SVG 1.1//EN" "http://www.w3.org/Graphics/SVG/1.1/DTD/svg11.dtd">
<svg version="1.1" id="Layer_1" xmlns="http://www.w3.org/2000/svg" xmlns:xlink="http://www.w3.org/1999/xlink" x="0px" y="0px"
	 width="59.8px" height="81.3px" viewBox="0 0 59.8 81.3" style="enable-background:new 0 0 59.8 81.3;" xml:space="preserve">
<style type="text/css">
	.st0{fill:#85468B;}
</style>
<path class="st0" d="M32.9,54.5v5h13.5v-5H32.9z M12.6,51.1v13.5h13.5V51.1H12.6z M32.9,34.2v5h13.5v-5H32.9z M15.3,33.5h8.1v8.1
	h-8.1V33.5z M12.6,30.8v13.5h13.5V30.8H12.6z M4.3,11.5h9.9v5c0,1.2,1,2.2,2.2,2.2h26.7c1.2,0,2.2-1,2.2-2.2v-5h10.4V77H4.3V11.5z
	 M29.3,6.8c2,0,3.4,1.4,3.4,3.4c0,2-1.4,3.4-3.4,3.4s-3.4-1.4-3.4-3.4C25.9,8.1,27.3,6.8,29.3,6.8z M29.3,0c-4.4,0-8.2,2.7-9.5,6.8
	H3c-1.6,0-3,1.3-3,3v68.6c0,1.6,1.3,3,3,3h53.8c1.6,0,3-1.3,3-3V9.8c0-1.6-1.3-3-3-3H38.8C37.5,2.7,33.7,0,29.3,0z"/>
</svg>
