<?xml version="1.0" encoding="utf-8"?>
<!-- Generator: Adobe Illustrator 21.1.0, SVG Export Plug-In . SVG Version: 6.00 Build 0)  -->
<!DOCTYPE svg PUBLIC "-//W3C//DTD SVG 1.1//EN" "http://www.w3.org/Graphics/SVG/1.1/DTD/svg11.dtd">
<svg version="1.1" id="Layer_1" xmlns="http://www.w3.org/2000/svg" xmlns:xlink="http://www.w3.org/1999/xlink" x="0px" y="0px"
	 width="82.4px" height="82.5px" viewBox="0 0 82.4 82.5" style="enable-background:new 0 0 82.4 82.5;" xml:space="preserve">
<style type="text/css">
	.st0{fill:#FCB415;}
</style>
<g>
	<path class="st0" d="M73,32.9l2.9,5.5L73,46.6V32.9z M9.5,32.2v15.1c0-0.2-0.1-0.5-0.2-0.7l-2.8-8.2L9.5,32.2z M64.1,22.2
		c-2.5,0-5.1,1.2-6.9,3.2v0.1c-0.4,0.5-0.9,0.9-1.3,1.5l-6.9,11.7l-3.2,1c1.6,1.6,2.5,3.8,1.9,6.1l4.5-1.6c0.6-0.3,1.3-0.7,1.6-1.3
		l3.5-5.7v10.5l2.6,34.9h10.7l2.3-31.4c0.1,1.7,1.4,2.9,3.2,2.9c1.9,0,3.2-1.3,3.2-3.2v-2.6l2.9-8.8c0.6-1,0.6-2,0.3-2.6l-4.5-9.2
		c-1.6-3.2-4.7-5.4-8.5-5.4H64.1z M13.3,22.2c-3.4,0-6.6,1.9-8.4,5.1c0,0.1-0.1,0.1-0.1,0.2l-4.5,9.2c-0.3,0.7-0.4,1.6-0.1,2.4
		l3,8.9v2.8c0,1.8,1.4,3.2,3.2,3.2s3.2-1.5,3.2-3.2v-3.2l2.6,34.9h10.7l2.6-34.9V36.8l3.7,6.1c0.4,0.6,1,1.1,1.7,1.4l9.5,3.2
		c1.7,0.9,3.9,0,4.5-1.8c0.6-1.8-0.6-3.8-2.5-4.1l-8.4-2.8L26.9,27c0-0.1-0.1-0.1-0.1-0.2c-1.7-2.6-4.6-4.6-8-4.6H13.3z M66.6,0
		c-5.3,0-9.5,4.3-9.5,9.5s4.3,9.5,9.5,9.5c5.3,0,9.5-4.3,9.5-9.5S71.9,0,66.6,0z M15.9,0c-5.3,0-9.5,4.3-9.5,9.5s4.3,9.5,9.5,9.5
		s9.5-4.3,9.5-9.5S21.1,0,15.9,0z"/>
</g>
<g>
</g>
<g>
</g>
<g>
</g>
<g>
</g>
<g>
</g>
<g>
</g>
</svg>
