<?xml version="1.0" encoding="utf-8"?>
<!-- Generator: Adobe Illustrator 21.1.0, SVG Export Plug-In . SVG Version: 6.00 Build 0)  -->
<!DOCTYPE svg PUBLIC "-//W3C//DTD SVG 1.1//EN" "http://www.w3.org/Graphics/SVG/1.1/DTD/svg11.dtd">
<svg version="1.1" id="Layer_1" xmlns="http://www.w3.org/2000/svg" xmlns:xlink="http://www.w3.org/1999/xlink" x="0px" y="0px"
	 width="23.8px" height="18px" viewBox="0 0 23.8 18" style="enable-background:new 0 0 23.8 18;" xml:space="preserve">
<style type="text/css">
	.st0{fill:#FFFFFF;}
</style>
<g>
	<path class="st0" d="M12,18c-5.1,0-6.9-0.3-7.5-0.5c-2.3-0.1-4.1-1.9-4.2-4.2C0.2,12.9,0,11.7,0,9.1c0-2.7,0.2-4,0.3-4.3
		c0-2.3,1.9-4.2,4.2-4.2C5,0.3,6.8,0,11.8,0c5.1,0,7,0.4,7.5,0.5c2.3,0.1,4.2,1.9,4.2,4.3c0.1,0.3,0.3,1.8,0.3,4.7
		c0,1.9-0.1,3.2-0.3,3.8c-0.1,2.3-1.9,4.1-4.2,4.2C18.7,17.7,16.9,18,12,18z M5,15.8c0,0,1.2,0.4,7,0.4c5.7,0,6.9-0.4,6.9-0.4
		l0.2-0.1l0.2,0c1.4,0,2.6-1.2,2.6-2.6v-0.2l0.1-0.1c0-0.2,0.2-0.9,0.2-3.3c0-3.1-0.2-4.4-0.2-4.5l0-0.2c0-1.4-1.2-2.6-2.6-2.6h-0.2
		l-0.1-0.1c0,0-1.5-0.5-7.1-0.5c-5.6,0-6.9,0.4-7,0.5l-0.1,0l-0.2,0C3.2,2.2,2,3.4,2,4.8L2,5c0,0-0.2,1.1-0.2,4.1
		C1.7,12,2,12.9,2,12.9l0,0.2c0,1.4,1.2,2.6,2.6,2.6h0.2L5,15.8L5,15.8z"/>
	<polygon class="st0" points="9.6,12.4 9.6,5.6 15.1,9 	"/>
</g>
<g>
</g>
<g>
</g>
<g>
</g>
<g>
</g>
<g>
</g>
<g>
</g>
</svg>
