<?xml version="1.0" encoding="utf-8"?>
<!-- Generator: Adobe Illustrator 21.1.0, SVG Export Plug-In . SVG Version: 6.00 Build 0)  -->
<!DOCTYPE svg PUBLIC "-//W3C//DTD SVG 1.1//EN" "http://www.w3.org/Graphics/SVG/1.1/DTD/svg11.dtd">
<svg version="1.1" id="Layer_1" xmlns="http://www.w3.org/2000/svg" xmlns:xlink="http://www.w3.org/1999/xlink" x="0px" y="0px"
	 width="43.5px" height="71.9px" viewBox="0 0 43.5 71.9" style="enable-background:new 0 0 43.5 71.9;" xml:space="preserve">
<style type="text/css">
	.st0{fill:#FCB415;}
</style>
<g>
	<path class="st0" d="M18.4,64.3c0-1.8,1.5-3.3,3.3-3.3c1.8,0,3.3,1.5,3.3,3.3c0,1.8-1.5,3.3-3.3,3.3C19.9,67.7,18.4,66.2,18.4,64.3
		 M4.4,3.5h34.7c0.5,0,1,0.4,1,1v52c0,0.5-0.4,1-1,1H4.4c-0.5,0-1-0.4-1-1v-52C3.4,4,3.9,3.5,4.4,3.5z M43.5,68.8V3.1
		c0-1.7-1.4-3.1-3.1-3.1H3.1C1.4,0,0,1.4,0,3.1v65.7c0,1.7,1.4,3.1,3.1,3.1h37.3C42.1,71.9,43.5,70.5,43.5,68.8"/>
	<path class="st0" d="M36.4,30.3l-13.5-13c-0.7-0.6-1.7-0.6-2.4,0l-13.5,13c-1.6,1.5,0.8,4,2.4,2.4l12.3-11.8l12.3,11.8
		C35.7,34.2,38,31.8,36.4,30.3z"/>
	<path class="st0" d="M33.2,30.4L22.5,20.1c-0.4-0.4-1-0.4-1.4,0L10.3,30.6C10.1,30.8,10,31,10,31.3l0,11.5c0,0.6,0.5,1,1,1h21.5
		c0.6,0,1-0.5,1-1V31.2C33.5,30.9,33.4,30.6,33.2,30.4z M22,38.8c-0.1,0.1-0.4,0.1-0.5,0c-2.2-2-6.4-4.5-6.4-7.7c0-2.2,1.7-4,3.6-4
		c1.7,0,2.6,1.3,2.9,1.9c0.1,0.1,0.2,0.1,0.2,0c0.2-0.6,0.9-1.9,2.5-1.9c2.1,0,4,1.7,4,4C28.4,34.1,24.2,36.8,22,38.8z"/>
</g>
<g>
</g>
<g>
</g>
<g>
</g>
<g>
</g>
<g>
</g>
<g>
</g>
</svg>
