<?xml version="1.0" encoding="utf-8"?>
<!-- Generator: Adobe Illustrator 21.1.0, SVG Export Plug-In . SVG Version: 6.00 Build 0)  -->
<!DOCTYPE svg PUBLIC "-//W3C//DTD SVG 1.1//EN" "http://www.w3.org/Graphics/SVG/1.1/DTD/svg11.dtd">
<svg version="1.1" id="Layer_1" xmlns="http://www.w3.org/2000/svg" xmlns:xlink="http://www.w3.org/1999/xlink" x="0px" y="0px"
	 width="247.1px" height="253.3px" viewBox="0 0 247.1 253.3" style="enable-background:new 0 0 247.1 253.3;" xml:space="preserve"
	>
<style type="text/css">
	.st0{fill:none;}
	.st1{fill:#FCB415;}
</style>
<g>
	<g>
		<rect x="2.1" y="225.5" class="st0" width="210.7" height="27.8"/>
		<path class="st1" d="M14.8,232.4c-0.8-1.1-2.2-1.7-3.6-1.7c-2.5,0-4.2,1.9-4.2,4.4c0,2.5,1.7,4.3,4.3,4.3c1.3,0,2.7-0.7,3.5-1.7
			v4.9c-1.4,0.4-2.4,0.7-3.6,0.7c-2.2,0-4.3-0.8-5.9-2.3c-1.7-1.6-2.5-3.6-2.5-6c0-2.2,0.8-4.2,2.3-5.8c1.6-1.6,3.8-2.6,6-2.6
			c1.3,0,2.5,0.3,3.8,0.8V232.4z"/>
		<path class="st1" d="M36.1,234.8c0,5.1-3.7,8.7-8.8,8.7s-8.8-3.6-8.8-8.7c0-4.8,4.2-8.1,8.8-8.1S36.1,230,36.1,234.8z M22.9,234.8
			c0,2.7,2,4.7,4.5,4.7s4.5-2,4.5-4.7c0-2.2-2-4.2-4.5-4.2S22.9,232.6,22.9,234.8z"/>
		<path class="st1" d="M41.9,227.1h4.1l3.2,8.5l3.4-8.5h4.1l2.4,15.8h-4.1l-1.2-9.1h0l-3.8,9.1h-1.6l-3.6-9.1h0l-1.3,9.1h-4.1
			L41.9,227.1z"/>
		<path class="st1" d="M62.9,227.1h6.3c3.4,0,5.8,1.6,5.8,5.2c0,3.7-2,5.4-5.6,5.4H67v5.2h-4.1V227.1z M67,234.4h0.7
			c1.5,0,3,0,3-1.9c0-2-1.4-2-3-2H67V234.4z"/>
		<path class="st1" d="M92,243h-5.1l-3.9-6.1h0v6.1h-4.1v-15.8H85c3.1,0,5.5,1.5,5.5,4.9c0,2.2-1.2,4.1-3.5,4.5L92,243z M83,234.2
			h0.4c1.3,0,2.9-0.3,2.9-2c0-1.7-1.5-2-2.9-2H83V234.2z"/>
		<path class="st1" d="M99.4,230.6v2.6h4.6v3.5h-4.6v2.7h4.9v3.5h-9v-15.8h9v3.5H99.4z"/>
		<path class="st1" d="M117.6,231.2c-0.8-0.6-1.7-1-2.7-1c-0.8,0-1.8,0.4-1.8,1.3c0,0.9,1.1,1.3,1.8,1.5l1,0.3
			c2.2,0.7,3.9,1.8,3.9,4.3c0,1.6-0.4,3.2-1.6,4.3c-1.2,1-2.9,1.5-4.5,1.5c-2,0-3.9-0.7-5.6-1.8l1.8-3.3c1,0.9,2.2,1.6,3.7,1.6
			c1,0,2-0.5,2-1.6c0-1.2-1.6-1.6-2.5-1.8c-2.6-0.7-4.3-1.4-4.3-4.5c0-3.2,2.3-5.3,5.5-5.3c1.6,0,3.5,0.5,5,1.3L117.6,231.2z"/>
		<path class="st1" d="M132.6,231.2c-0.8-0.6-1.7-1-2.7-1c-0.8,0-1.8,0.4-1.8,1.3c0,0.9,1.1,1.3,1.8,1.5l1,0.3
			c2.2,0.7,3.9,1.8,3.9,4.3c0,1.6-0.4,3.2-1.6,4.3c-1.2,1-2.9,1.5-4.5,1.5c-2,0-3.9-0.7-5.6-1.8l1.8-3.3c1,0.9,2.2,1.6,3.7,1.6
			c1,0,2-0.5,2-1.6c0-1.2-1.6-1.6-2.5-1.8c-2.6-0.7-4.3-1.4-4.3-4.5c0-3.2,2.3-5.3,5.5-5.3c1.6,0,3.5,0.5,5,1.3L132.6,231.2z"/>
		<path class="st1" d="M143.1,243H139v-15.8h4.1V243z"/>
		<path class="st1" d="M164.6,234.8c0,5.1-3.7,8.7-8.8,8.7s-8.8-3.6-8.8-8.7c0-4.8,4.2-8.1,8.8-8.1S164.6,230,164.6,234.8z
			 M151.4,234.8c0,2.7,2,4.7,4.5,4.7s4.5-2,4.5-4.7c0-2.2-2-4.2-4.5-4.2S151.4,232.6,151.4,234.8z"/>
		<path class="st1" d="M168.6,227.1h4.1l7.5,9.7h0v-9.7h4.1V243h-4.1l-7.5-9.7h0v9.7h-4.1V227.1z"/>
		<path class="st1" d="M197.9,231.2c-0.8-0.6-1.7-1-2.7-1c-0.8,0-1.8,0.4-1.8,1.3c0,0.9,1.1,1.3,1.8,1.5l1,0.3
			c2.2,0.7,3.9,1.8,3.9,4.3c0,1.6-0.4,3.2-1.6,4.3c-1.2,1-2.9,1.5-4.5,1.5c-2,0-3.9-0.7-5.6-1.8l1.8-3.3c1,0.9,2.2,1.6,3.7,1.6
			c1,0,2-0.5,2-1.6c0-1.2-1.6-1.6-2.5-1.8c-2.6-0.7-4.3-1.4-4.3-4.5c0-3.2,2.3-5.3,5.5-5.3c1.6,0,3.5,0.5,5,1.3L197.9,231.2z"/>
	</g>
	<g>
		<rect x="88.8" y="39.7" class="st1" width="51.3" height="33.6"/>
		<polygon class="st1" points="156.5,42 72.5,42 114.5,0 		"/>
	</g>
	<g>
		<path class="st1" d="M82.6,176.9v21.5H4.3L44.1,155c5.7-6.2,11.1-15,11.1-23.9c0-6.2-4.4-12.7-11.1-12.7
			c-6.9,0-10.6,5.3-10.6,11.9c0,1.3,0.1,2.7,0.4,4.1H5.9c0.8-22.4,15-37.5,38-37.5c20.4,0,37.6,13.4,37.6,34.6
			c0,14-5.8,22.1-15.8,31.2l-15.1,14.1H82.6z"/>
		<path class="st1" d="M127.7,122.3l-1.7,11.1l8-0.6c19.9-1.6,34.5,14.7,34.5,34.9c0,10.2-4.5,19.8-12.5,26.4
			c-7.8,6.2-18.7,8.1-28.4,8.1c-11.1,0-22.4-2.7-31.8-8.8l3.7-23.9c7.5,6.7,17.1,11.2,27.1,11.2c8,0,15.5-5.8,15.5-14.3
			c0-11.8-11.2-16.7-21.3-16.7c-6.5,0-12.8,1.3-18.6,4l8.5-52.9h50.7v21.5H127.7z"/>
		<path class="st1" d="M208.2,113.7c0,8.7-6.5,13.3-14.7,13.3s-14.7-4.6-14.7-13.3c0-8.6,6.7-13.1,14.7-13.1
			C201.4,100.6,208.2,105.1,208.2,113.7z M187.3,113.8c0,3.4,2.7,6,6.1,6s6.1-2.6,6.1-6s-2.7-6.1-6.1-6.1S187.3,110.5,187.3,113.8z
			 M231.3,101.3L200,155.2h-7l31.3-53.9H231.3z M245.7,142.6c0,8.7-6.5,13.3-14.7,13.3s-14.7-4.6-14.7-13.3
			c0-8.6,6.7-13.1,14.7-13.1S245.7,134.1,245.7,142.6z M224.9,142.8c0,3.4,2.7,6,6.1,6s6.1-2.6,6.1-6s-2.7-6.1-6.1-6.1
			S224.9,139.4,224.9,142.8z"/>
	</g>
</g>
<g>
</g>
<g>
</g>
<g>
</g>
<g>
</g>
<g>
</g>
<g>
</g>
</svg>
