<?xml version="1.0" encoding="utf-8"?>
<!-- Generator: Adobe Illustrator 21.1.0, SVG Export Plug-In . SVG Version: 6.00 Build 0)  -->
<!DOCTYPE svg PUBLIC "-//W3C//DTD SVG 1.1//EN" "http://www.w3.org/Graphics/SVG/1.1/DTD/svg11.dtd">
<svg version="1.1" id="Layer_1" xmlns="http://www.w3.org/2000/svg" xmlns:xlink="http://www.w3.org/1999/xlink" x="0px" y="0px"
	 width="72.4px" height="67.8px" viewBox="0 0 72.4 67.8" style="enable-background:new 0 0 72.4 67.8;" xml:space="preserve">
<style type="text/css">
	.st0{fill:#85468B;}
</style>
<g>
	<path class="st0" d="M8.7,59.4h10.9c0.6,0,1.2-0.5,1.2-1.2V24.6c0-0.6-0.5-1.2-1.2-1.2H8.7c-0.6,0-1.2,0.5-1.2,1.2v33.6
		C7.6,58.9,8.1,59.4,8.7,59.4z"/>
	<path class="st0" d="M31.4,59.4H42c0.7,0,1.3-0.6,1.3-1.3v-45c0-0.7-0.6-1.3-1.3-1.3H31.4c-0.7,0-1.3,0.6-1.3,1.3v45
		C30.1,58.8,30.7,59.4,31.4,59.4z"/>
	<path class="st0" d="M53.8,59.4h10.9c0.6,0,1.1-0.5,1.1-1.1V1.1c0-0.6-0.5-1.1-1.1-1.1H53.8c-0.6,0-1.1,0.5-1.1,1.1v57.1
		C52.6,58.9,53.1,59.4,53.8,59.4z"/>
	<path class="st0" d="M70.6,67.8H1.8C0.8,67.8,0,67,0,66c0-1,0.8-1.8,1.8-1.8h68.8c1,0,1.8,0.8,1.8,1.8C72.4,67,71.6,67.8,70.6,67.8
		z"/>
</g>
</svg>
