<?xml version="1.0" encoding="utf-8"?>
<!-- Generator: Adobe Illustrator 21.1.0, SVG Export Plug-In . SVG Version: 6.00 Build 0)  -->
<svg version="1.1" xmlns="http://www.w3.org/2000/svg" xmlns:xlink="http://www.w3.org/1999/xlink" x="0px" y="0px"
	 viewBox="0 0 25.2 25.3" style="enable-background:new 0 0 25.2 25.3;" xml:space="preserve">
<style type="text/css">
	.st0{fill:none;stroke:#8C8C8C;stroke-width:2;stroke-miterlimit:10;}
	.st1{display:none;}
	.st2{display:inline;}
	.st3{fill:#EBEBEB;}
	.st4{display:inline;fill:#FFB500;}
	.st5{fill:#323232;}
	.st6{display:inline;fill:none;stroke:#5F5F5F;stroke-miterlimit:10;}
	.st7{fill:#FFB500;}
	.st8{fill:#1A1A1A;}
	.st9{fill:none;stroke:#1A1A1A;stroke-width:2;stroke-miterlimit:10;}
	.st10{display:inline;opacity:0.1;fill:#EA1C24;}
</style>
<g id="Art">
	<line class="st0" x1="22.2" y1="3.6" x2="3.5" y2="22.3"/>
	<line class="st0" x1="22.2" y1="22.3" x2="3.5" y2="3.6"/>
	<text transform="matrix(1 0 0 1 4007.218 2949.9067)" style="font-family:'MyriadPro-Regular'; font-size:12px;">Lorem ipsum</text>
</g>
<g id="Form">
</g>
<g id="Dropdown" class="st1">
	<g class="st2">
		<rect x="-1508.1" y="192.3" class="st3" width="1440" height="236.1"/>
	</g>
	<rect x="-1377.9" y="349.8" class="st4" width="277.5" height="44.8"/>
	<rect x="-1377.9" y="185.9" class="st4" width="147" height="6.3"/>
	<rect x="-1362.8" y="232.1" style="display:inline;fill:none;" width="1065.7" height="200.4"/>
	<text transform="matrix(1 0 0 1 -1362.8264 244.2922)" class="st2"><tspan x="0" y="0" class="st5" style="font-family:'Futura'; font-size:14px; letter-spacing:1;">OUR PRODUCTS:</tspan><tspan x="122.8" y="0" class="st5" style="font-family:'Futura-Bold'; font-size:14px; letter-spacing:1;"> </tspan><tspan x="0" y="45" class="st5" style="font-family:'Futura-Bold'; font-size:17px;">See All</tspan><tspan x="0" y="90" class="st5" style="font-family:'Futura-Bold'; font-size:17px;">Lifesaving Devices </tspan><tspan x="0" y="135" class="st5" style="font-family:'Futura-Bold'; font-size:17px;">Data Solutions</tspan><tspan x="368.6" y="0" class="st5" style="font-family:'Futura'; font-size:14px; letter-spacing:1;">SOLUTIONS FOR:</tspan><tspan x="495.7" y="0" class="st5" style="font-family:'Futura-Bold'; font-size:14px; letter-spacing:1;"> </tspan><tspan x="368.6" y="45" class="st5" style="font-family:'Futura-Bold'; font-size:17px;">EMS Teams &amp; the Military</tspan><tspan x="368.6" y="90" class="st5" style="font-family:'Futura-Bold'; font-size:17px;">Hospitals &amp; Health Centers</tspan><tspan x="368.6" y="135" class="st5" style="font-family:'Futura-Bold'; font-size:17px;">Workplace &amp; Community</tspan><tspan x="737.1" y="2" class="st5" style="font-family:'Futura-Bold'; font-size:17px;">How to Buy from Us</tspan></text>
	<rect x="-1377.9" y="185.9" class="st4" width="146.8" height="6.3"/>
	<line class="st6" x1="-68.1" y1="428.4" x2="-1508.1" y2="428.4"/>
	<g class="st2">
		<g>
			<rect x="-168.7" y="1160.1" class="st7" width="100.5" height="107.9"/>
		</g>
		<g>
			<rect x="-158.1" y="1220.1" style="fill:none;" width="76.6" height="32.4"/>
			<text transform="matrix(1 0 0 1 -138.8091 1232.4011)"><tspan x="0" y="0" class="st8" style="font-family:'Futura-Bold'; font-size:14px;">Find</tspan><tspan x="-4.1" y="16.8" class="st8" style="font-family:'Futura-Bold'; font-size:14px;">a Rep</tspan></text>
		</g>
		<path class="st9" d="M-117.7,1176.9c-6.2,0-11.3,5-11.3,11.3c0,7.9,11.3,19.1,11.3,19.1s11.3-11.2,11.3-19.1
			C-106.4,1181.9-111.5,1176.9-117.7,1176.9z M-117.7,1192.7c-2.5,0-4.6-2-4.6-4.6c0-2.5,2-4.6,4.6-4.6c2.5,0,4.6,2,4.6,4.6
			C-113.1,1190.6-115.1,1192.7-117.7,1192.7z"/>
	</g>
</g>
<g id="Grid_1_" class="st1">
	<rect id="XMLID_51_" x="-1378.1" y="6.7" class="st10" width="70" height="6491.7"/>
	<rect id="XMLID_50_" x="-268.1" y="6.7" class="st10" width="70" height="6491.7"/>
	<rect id="XMLID_49_" x="-369" y="6.7" class="st10" width="70" height="6491.7"/>
	<rect id="XMLID_48_" x="-469.9" y="6.7" class="st10" width="70" height="6491.7"/>
	<rect id="XMLID_47_" x="-570.8" y="6.7" class="st10" width="70" height="6491.7"/>
	<rect id="XMLID_46_" x="-1075.4" y="6.7" class="st10" width="70" height="6491.7"/>
	<rect id="XMLID_45_" x="-1176.3" y="6.7" class="st10" width="70" height="6491.7"/>
	<rect id="XMLID_19_" x="-1277.2" y="6.7" class="st10" width="70" height="6491.7"/>
	<rect id="XMLID_18_" x="-974.5" y="6.7" class="st10" width="70" height="6491.7"/>
	<rect id="XMLID_17_" x="-671.8" y="6.7" class="st10" width="70" height="6491.7"/>
	<rect id="XMLID_16_" x="-772.7" y="6.7" class="st10" width="70" height="6491.7"/>
	<rect id="XMLID_15_" x="-873.6" y="6.7" class="st10" width="70" height="6491.7"/>
	<rect x="-1508.1" y="6.6" class="st10" width="1440" height="900"/>
	<rect id="XMLID_37_" x="331.5" y="6.7" class="st10" width="70" height="6491.7"/>
	<rect id="XMLID_36_" x="1441.5" y="6.7" class="st10" width="70" height="6491.7"/>
	<rect id="XMLID_35_" x="1340.6" y="6.7" class="st10" width="70" height="6491.7"/>
	<rect id="XMLID_34_" x="1239.7" y="6.7" class="st10" width="70" height="6491.7"/>
	<rect id="XMLID_33_" x="1138.8" y="6.7" class="st10" width="70" height="6491.7"/>
	<rect id="XMLID_32_" x="634.3" y="6.7" class="st10" width="70" height="6491.7"/>
	<rect id="XMLID_31_" x="533.4" y="6.7" class="st10" width="70" height="6491.7"/>
	<rect id="XMLID_30_" x="432.5" y="6.7" class="st10" width="70" height="6491.7"/>
	<rect id="XMLID_29_" x="735.2" y="6.7" class="st10" width="70" height="6491.7"/>
	<rect id="XMLID_28_" x="1037.9" y="6.7" class="st10" width="70" height="6491.7"/>
	<rect id="XMLID_27_" x="937" y="6.7" class="st10" width="70" height="6491.7"/>
	<rect id="XMLID_20_" x="836.1" y="6.7" class="st10" width="70" height="6491.7"/>
	<rect x="201.5" y="6.6" class="st10" width="1440" height="900"/>
	<path id="XMLID_1_" class="st10" d="M2119.2,5904.5h-39.7V6.6h39.7V5904.5z M2399.4,6.6h-39.7v5897.9h39.7V6.6z M2343.4,6.6h-39.7
		v5897.9h39.7V6.6z M2287.3,6.6h-39.7v5897.9h39.7V6.6z M2231.3,6.6h-39.7v5897.9h39.7V6.6z M2175.2,6.6h-39.7v5897.9h39.7V6.6z"/>
	
		<rect x="1905.9" y="152.6" transform="matrix(-1.836970e-16 1 -1 -1.836970e-16 2579.511 -1899.3551)" class="st10" width="667" height="375"/>
	<path id="XMLID_8_" class="st10" d="M2582.2,5904.5h-39.7V6.6h39.7V5904.5z M2862.4,6.6h-39.7v5897.9h39.7V6.6z M2806.4,6.6h-39.7
		v5897.9h39.7V6.6z M2750.3,6.6h-39.7v5897.9h39.7V6.6z M2694.3,6.6h-39.7v5897.9h39.7V6.6z M2638.2,6.6h-39.7v5897.9h39.7V6.6z"/>
	
		<rect x="2368.9" y="152.6" transform="matrix(-1.836970e-16 1 -1 -1.836970e-16 3042.5205 -2362.3647)" class="st10" width="667" height="375"/>
	<path id="XMLID_38_" class="st10" d="M3046.2,5904.5h-39.7V6.6h39.7V5904.5z M3326.4,6.6h-39.7v5897.9h39.7V6.6z M3270.4,6.6h-39.7
		v5897.9h39.7V6.6z M3214.3,6.6h-39.7v5897.9h39.7V6.6z M3158.3,6.6h-39.7v5897.9h39.7V6.6z M3102.2,6.6h-39.7v5897.9h39.7V6.6z"/>
	
		<rect x="2832.9" y="152.6" transform="matrix(-1.836970e-16 1 -1 -1.836970e-16 3506.5181 -2826.3623)" class="st10" width="667" height="375"/>
</g>
</svg>
