<?xml version="1.0" encoding="utf-8"?>
<!-- Generator: Adobe Illustrator 22.0.1, SVG Export Plug-In . SVG Version: 6.00 Build 0)  -->
<svg version="1.1" xmlns="http://www.w3.org/2000/svg" xmlns:xlink="http://www.w3.org/1999/xlink" x="0px" y="0px"
	 viewBox="0 0 84 84" style="enable-background:new 0 0 84 84;" xml:space="preserve">
<style type="text/css">
	.st0{fill:#85458A;}
	.st1{display:none;}
	.st2{display:inline;}
	.st3{display:inline;fill:#85458A;}
</style>
<g id="Layer_1">
	<g>
		<path class="st0" d="M7.1,60.5c-0.9,0-1.7,0.7-1.7,1.7l0,19.9c0,0.9,0.7,1.7,1.7,1.7l19.9,0c0.9,0,1.7-0.7,1.7-1.7l0-19.9
			c0-0.9-0.7-1.7-1.7-1.7H7.1z M22.5,36.1l2.5,2.2l-8.6,9.6l-7.1-6.1l2.2-2.5l4.6,3.9L22.5,36.1z M7.1,30.6c-0.9,0-1.7,0.7-1.7,1.7
			l0,19.9c0,0.9,0.7,1.7,1.7,1.7h19.9c0.9,0,1.7-0.7,1.7-1.7l0-19.9c0-0.9-0.7-1.7-1.7-1.7L7.1,30.6z M22.5,6.2L25,8.4l-8.6,9.6
			l-7.1-6.1l2.2-2.5l4.6,3.9L22.5,6.2z M7.1,0.6c-0.9,0-1.7,0.7-1.7,1.7l0,19.9c0,0.9,0.7,1.7,1.7,1.7l19.9,0c0.9,0,1.7-0.7,1.7-1.7
			l0-19.9c0-0.9-0.7-1.7-1.7-1.7L7.1,0.6z"/>
		<path class="st0" d="M76.5,9.7H41.7c-1.1,0-1.9,0.9-1.9,1.9v1c0,1.1,0.9,1.9,1.9,1.9h34.8c1.1,0,1.9-0.9,1.9-1.9v-1
			C78.4,10.6,77.6,9.7,76.5,9.7z"/>
		<path class="st0" d="M76.5,39.5H41.7c-1.1,0-1.9,0.9-1.9,1.9v1c0,1.1,0.9,1.9,1.9,1.9h34.8c1.1,0,1.9-0.9,1.9-1.9v-1
			C78.4,40.4,77.6,39.5,76.5,39.5z"/>
		<path class="st0" d="M76.5,69.3H41.7c-1.1,0-1.9,0.9-1.9,1.9v1c0,1.1,0.9,1.9,1.9,1.9h34.8c1.1,0,1.9-0.9,1.9-1.9v-1
			C78.4,70.1,77.6,69.3,76.5,69.3z"/>
	</g>
</g>
<g id="Layer_2" class="st1">
	<g class="st2">
		<path class="st0" d="M39.3,35.6c-1.5,0.7-2.7,2-3.1,3.6c-0.8,3,0.9,6.2,4,7c1.7,0.5,3.4,0.1,4.7-0.8c0,0,0.4-0.3,0.4-0.3
			c0,0,0.1,0,0.1-0.1c0.9-0.7,30.6-22.4,30-23.5C74.7,20.5,39.3,35.6,39.3,35.6z"/>
		<path class="st0" d="M50.4,22.8c-2-1.8-4.5-3.3-7.3-4.2c-2.7-0.9-5.7-1.2-8.7-0.9c-0.3,0-0.5-0.2-0.5-0.4c0-0.2,0.1-0.4,0.3-0.5
			c3-1,6.2-1.3,9.5-1c3.3,0.3,6.5,1.4,9.5,3.1l0,0c1.2,0.7,1.5,2.1,0.9,3.3c-0.7,1.2-2.1,1.5-3.3,0.9C50.6,23,50.5,22.9,50.4,22.8z"
			/>
		<path class="st0" d="M61.9,17.7c-1.6-1.6-3.3-3.1-5.3-4.4c-1.9-1.3-4-2.3-6.2-3.2c-4.4-1.7-9.2-2.4-14-2c-0.3,0-0.5-0.2-0.5-0.5
			c0-0.3,0.2-0.5,0.4-0.5c4.9-1,10-1,15,0.2c2.5,0.6,4.9,1.4,7.3,2.6c2.3,1.1,4.6,2.5,6.6,4.2l0,0c1.1,0.8,1.2,2.4,0.4,3.4
			c-0.8,1.1-2.4,1.2-3.4,0.4C62.1,17.8,62,17.7,61.9,17.7z"/>
		<path class="st0" d="M42,78.1c-20.4,0-36.9-16.6-36.9-36.9c0-12.9,6.9-25,17.9-31.7c1.7-1,3.8-0.5,4.8,1.2c1,1.7,0.5,3.8-1.2,4.8
			C17.5,21,12.1,30.6,12.1,41.2c0,16.5,13.4,29.9,29.9,29.9c16.5,0,29.9-13.4,29.9-29.9c0-1.7-0.1-3.3-0.4-5c-0.3-1.9,1-3.7,2.9-4
			c1.9-0.3,3.7,1,4,2.9c0.3,2,0.5,4.1,0.5,6.1C78.9,61.6,62.4,78.1,42,78.1z"/>
	</g>
</g>
<g id="Layer_3" class="st1">
	<g class="st2">
		<path class="st0" d="M14.8,67.5h10.9c0.6,0,1.2-0.5,1.2-1.2V32.7c0-0.6-0.5-1.2-1.2-1.2H14.8c-0.6,0-1.2,0.5-1.2,1.2v33.6
			C13.6,67,14.1,67.5,14.8,67.5z"/>
		<path class="st0" d="M37.4,67.5H48c0.7,0,1.3-0.6,1.3-1.3v-45c0-0.7-0.6-1.3-1.3-1.3H37.4c-0.7,0-1.3,0.6-1.3,1.3v45
			C36.1,67,36.7,67.5,37.4,67.5z"/>
		<path class="st0" d="M59.8,67.5h10.9c0.6,0,1.1-0.5,1.1-1.1V9.3c0-0.6-0.5-1.1-1.1-1.1H59.8c-0.6,0-1.1,0.5-1.1,1.1v57.1
			C58.6,67,59.2,67.5,59.8,67.5z"/>
		<path class="st0" d="M76.6,75.9H7.8c-1,0-1.8-0.8-1.8-1.8s0.8-1.8,1.8-1.8h68.8c1,0,1.8,0.8,1.8,1.8S77.6,75.9,76.6,75.9z"/>
	</g>
</g>
<g id="Layer_4" class="st1">
	<path class="st3" d="M46.5,68.5l4.3,0.9l0.9,4.4L46,75.5l-1.1-1.2L46.5,68.5z M58.6,52.8L44.6,66.6c-0.2,0.2-0.4,0.4-0.4,0.6
		l-3,10.2c-0.1,0.4,0,0.9,0.4,1.2c0.2,0.2,0.6,0.4,0.9,0.4c0.1,0,0.2-0.1,0.4-0.1l10.2-3c0.2-0.1,0.5-0.2,0.6-0.4l13.9-13.9
		L58.6,52.8z M34.1,46.6v5.7h15l5.7-5.7H34.1z M23.2,46.6v5.7h5.7v-5.7H23.2z M67.1,45.7c-0.8,0-1.5,0.3-2.1,0.9L61.5,50l8.6,8.7
		l3.4-3.5c1.2-1.2,1.2-3,0-4.2l-4.2-4.3C68.7,46,67.8,45.7,67.1,45.7z M34.1,35.3V41H55v-5.7H34.1z M23.2,35.3V41h5.7v-5.7H23.2z
		 M34.1,24v5.7H55V24H34.1z M23.2,24v5.7h5.7V24H23.2z M12.7,5.9c-1.8,0-3.3,1.5-3.3,3.3v61.3c0,1.8,1.5,3.3,3.3,3.3h23.7l1.6-5.7
		H15.1V12h48.4v29c1.2-0.6,2.5-0.9,3.8-0.9c0.6,0,1.3,0,1.9,0.2V9.2c0-1.8-1.5-3.3-3.3-3.3H12.7z"/>
</g>
</svg>
