<?xml version="1.0" encoding="utf-8"?>
<!-- Generator: Adobe Illustrator 21.1.0, SVG Export Plug-In . SVG Version: 6.00 Build 0)  -->
<!DOCTYPE svg PUBLIC "-//W3C//DTD SVG 1.1//EN" "http://www.w3.org/Graphics/SVG/1.1/DTD/svg11.dtd">
<svg version="1.1" id="Layer_1" xmlns="http://www.w3.org/2000/svg" xmlns:xlink="http://www.w3.org/1999/xlink" x="0px" y="0px"
	 width="86.6px" height="86.6px" viewBox="0 0 86.6 86.6" style="enable-background:new 0 0 86.6 86.6;" xml:space="preserve">
<style type="text/css">
	.st0{fill:#85468B;}
</style>
<path class="st0" d="M60.6,69.3c3.8,0,6.9,3.1,6.9,6.9c0,3.8-3.1,6.9-6.9,6.9c-3.8,0-6.9-3.1-6.9-6.9c0-2.6,1.4-4.9,3.6-6.1
	c0.1,0,0.1,0,0.2-0.1c0,0,0,0,0.1-0.1c0,0,0.1,0,0.1-0.1C58.5,69.5,59.5,69.3,60.6,69.3z M10.4,62.3c3.8,0,6.9,3.1,6.9,6.9
	c0,3.8-3.1,6.9-6.9,6.9s-6.9-3.1-6.9-6.9C3.5,65.4,6.5,62.3,10.4,62.3z M76.2,43.3c3.8,0,6.9,3.1,6.9,6.9s-3.1,6.9-6.9,6.9
	s-6.9-3.1-6.9-6.9S72.3,43.3,76.2,43.3z M43.3,29.4c7.7,0,13.9,6.2,13.9,13.9c0,7.7-6.2,13.9-13.9,13.9S29.4,51,29.4,43.3
	c0-3.7,1.5-7.1,3.8-9.6c0.1-0.1,0.3-0.2,0.4-0.4C36.1,30.9,39.5,29.4,43.3,29.4z M55.4,3.5c3.8,0,6.9,3.1,6.9,6.9s-3.1,6.9-6.9,6.9
	s-6.9-3.1-6.9-6.9S51.6,3.5,55.4,3.5z M10.4,3.5c3.8,0,6.9,3.1,6.9,6.9s-3.1,6.9-6.9,6.9s-6.9-3.1-6.9-6.9S6.5,3.5,10.4,3.5z
	 M10.4,0C4.7,0,0,4.7,0,10.4s4.7,10.4,10.4,10.4c2.2,0,4.3-0.7,6-1.9l13.5,13.5c-2.4,3-3.9,6.8-3.9,10.9c0,3.4,1,6.6,2.8,9.3
	l-11.4,9c-1.8-1.7-4.3-2.7-7-2.7C4.7,58.9,0,63.5,0,69.3s4.7,10.4,10.4,10.4S20.8,75,20.8,69.3c0-1.8-0.5-3.5-1.3-5l11.4-9
	c3.1,3.2,7.5,5.3,12.4,5.3c2.3,0,4.5-0.4,6.5-1.2l4.5,8.6c-2.5,1.9-4.1,4.9-4.1,8.2c0,5.7,4.7,10.4,10.4,10.4S71,81.9,71,76.2
	c0-5.7-4.7-10.4-10.4-10.4c-1.1,0-2.2,0.2-3.2,0.5l-4.5-8.6c3.3-2.2,5.8-5.4,7-9.2l6,1.2c0,0.1,0,0.3,0,0.4
	c0,5.7,4.7,10.4,10.4,10.4s10.4-4.7,10.4-10.4s-4.7-10.4-10.4-10.4c-4.4,0-8.2,2.7-9.7,6.6l-6-1.3c0.1-0.6,0.1-1.2,0.1-1.8
	c0-6.8-4-12.7-9.7-15.5l2.7-7.1c0.6,0.1,1.3,0.2,1.9,0.2c5.7,0,10.4-4.7,10.4-10.4S61.1,0,55.4,0S45,4.7,45,10.4
	c0,3.8,2.1,7.2,5.2,9l-2.7,7.2c-1.4-0.4-2.8-0.6-4.3-0.6c-4.1,0-7.9,1.5-10.9,3.9L18.8,16.4c1.2-1.7,1.9-3.8,1.9-6
	C20.8,4.7,16.1,0,10.4,0z"/>
<g>
</g>
<g>
</g>
<g>
</g>
<g>
</g>
<g>
</g>
<g>
</g>
</svg>
