<?xml version="1.0" encoding="utf-8"?>
<!-- Generator: Adobe Illustrator 22.0.1, SVG Export Plug-In . SVG Version: 6.00 Build 0)  -->
<svg version="1.1" id="Layer_1" xmlns="http://www.w3.org/2000/svg" xmlns:xlink="http://www.w3.org/1999/xlink" x="0px" y="0px"
	 viewBox="0 0 56.2 54.1" style="enable-background:new 0 0 56.2 54.1;" xml:space="preserve">
<style type="text/css">
	.st0{fill:#85458A;}
</style>
<path class="st0" d="M26,45.4v4.3h30.3v-4.3H26z M17.1,38.9L17.1,38.9c-0.6,0.1-1.1,0.4-1.4,0.8L8.3,49l-4.9-3.2
	c-1-0.7-2.4-0.4-3,0.6c-0.7,1-0.4,2.4,0.6,3l6.5,4.3c0.9,0.6,2.2,0.4,2.9-0.5L19,42.4C20.3,40.9,19,38.7,17.1,38.9z M26,26v4.3h30.3
	V26H26z M17.1,19.5L17.1,19.5c-0.6,0.1-1.1,0.4-1.4,0.8l-7.4,9.3l-4.9-3.2c-1-0.7-2.4-0.4-3,0.6c-0.7,1-0.4,2.4,0.6,3l6.5,4.3
	c0.9,0.6,2.2,0.4,2.9-0.5L19,23C20.3,21.5,19,19.2,17.1,19.5z M26,6.5v4.3h30.3V6.5H26z M17.1,0L17.1,0c-0.6,0.1-1.1,0.4-1.4,0.8
	l-7.4,9.3L3.4,6.8c-1-0.7-2.4-0.4-3,0.6c-0.7,1-0.4,2.4,0.6,3l6.5,4.3c0.9,0.6,2.2,0.4,2.9-0.5L19,3.5C20.3,2,19-0.2,17.1,0z"/>
<g>
</g>
<g>
</g>
<g>
</g>
<g>
</g>
<g>
</g>
<g>
</g>
<g>
</g>
<g>
</g>
<g>
</g>
<g>
</g>
<g>
</g>
<g>
</g>
<g>
</g>
<g>
</g>
<g>
</g>
</svg>
