<?xml version="1.0" encoding="utf-8"?>
<!-- Generator: Adobe Illustrator 22.0.1, SVG Export Plug-In . SVG Version: 6.00 Build 0)  -->
<svg version="1.1" id="Layer_1" xmlns="http://www.w3.org/2000/svg" xmlns:xlink="http://www.w3.org/1999/xlink" x="0px" y="0px"
	 viewBox="0 0 84 84" style="enable-background:new 0 0 84 84;" xml:space="preserve">
<style type="text/css">
	.st0{fill:#85468B;}
	.st1{fill:#EBEBEB;}
</style>
<g>
	<path class="st0" d="M76.2,36.9c-1.4,0-2.5-1.1-2.5-2.5s1.1-2.5,2.5-2.5s2.5,1.1,2.5,2.5S77.7,36.9,76.2,36.9 M76.2,28.6
		c-1.4,0-2.5-1.1-2.5-2.5s1.1-2.5,2.5-2.5s2.5,1.1,2.5,2.5S77.7,28.6,76.2,28.6 M76.2,45.3c-1.4,0-2.5-1.1-2.5-2.5s1.1-2.5,2.5-2.5
		s2.5,1.1,2.5,2.5S77.7,45.3,76.2,45.3 M70.4,59.5H8.5V9.3h61.9V59.5z M78.8,4.3H5.1c-1.8,0-3.3,1.5-3.3,3.3v53.5
		c0,1.8,1.5,3.3,3.3,3.3h73.6c1.8,0,3.3-1.5,3.3-3.3V7.6C82.2,5.8,80.7,4.3,78.8,4.3"/>
	<rect x="25.7" y="58.2" class="st1" width="37.9" height="7.6"/>
	<path class="st0" d="M61.4,50.8c0.1-1.6-1.1-2.9-2.7-3c-1.6-0.1-2.9,0.9-3,2.7c0,0,0-0.5-0.1,2c-0.2-0.2-0.5-0.4-0.8-0.5
		c0-3.4-0.1-3.9-0.1-3.9c0.1-1.6-1.1-2.9-2.7-3c-1.6-0.1-2.9,0.9-3,2.7c0,0,0-0.5-0.1,1.9c-0.3,0-0.5-0.1-0.8-0.1
		c0-3.5-0.1-4.3-0.1-4.3c0.1-1.6-1.1-2.9-2.7-3c-1.6-0.1-2.9,0.9-3,2.7c0,0,0,0.8-0.1,4.5c-0.4,0-0.7,0.1-1,0.3
		c0-3.7-0.2-18.4-0.2-18.4c0.1-1.6-1.1-2.9-2.7-3c-1.6-0.1-2.9,0.9-3,2.7c0,0-0.1,16.2-0.3,26c0,1.2-1.7,1.5-1.7,0.2
		c-0.1-4.4-0.2-11.6-0.2-11.6c-0.1-1.6-1.4-2.8-3-2.7s-2.8,1.2-2.7,3c0,0-0.1,16.3,0.1,18.5h0.1l0,0c0,8.3,6.7,15,15,15h3.9
		c8.3,0,15-6.7,15-15c0-0.3,0-0.6,0-1l0.1-0.1C61.8,63.3,61.4,50.8,61.4,50.8"/>
</g>
</svg>
