<?xml version="1.0" encoding="utf-8"?>
<!-- Generator: Adobe Illustrator 21.1.0, SVG Export Plug-In . SVG Version: 6.00 Build 0)  -->
<!DOCTYPE svg PUBLIC "-//W3C//DTD SVG 1.1//EN" "http://www.w3.org/Graphics/SVG/1.1/DTD/svg11.dtd">
<svg version="1.1" id="Layer_1" xmlns="http://www.w3.org/2000/svg" xmlns:xlink="http://www.w3.org/1999/xlink" x="0px" y="0px"
	 width="75.7px" height="60.4px" viewBox="0 0 75.7 60.4" style="enable-background:new 0 0 75.7 60.4;" xml:space="preserve">
<style type="text/css">
	.st0{fill:#85468B;}
	.st1{fill:#FFFFFF;}
</style>
<g>
	<g>
		<path class="st0" d="M73.1,0H13.2c-1.4,0-2.6,1.2-2.6,2.6V46c0,1.4,1.2,2.6,2.6,2.6h59.9c1.4,0,2.6-1.2,2.6-2.6V2.6
			C75.7,1.2,74.5,0,73.1,0z M71.5,39.6H14.7V4.2h56.7V39.6z"/>
		<path class="st0" d="M56.3,56.4H51v-3.6H35.3v3.6H30c-2.1,0-3.8,1.8-3.8,3.9h33.9C60.1,58.2,58.4,56.4,56.3,56.4z"/>
	</g>
	<g>
		<polygon class="st0" points="26.3,33.2 26.3,26.5 1.4,26.5 0,25.1 0,18.3 1.4,16.9 26.3,16.9 26.3,10.2 28.7,9.3 40.2,20.7 
			40.2,22.7 28.7,34.2 		"/>
		<path class="st1" d="M27.7,10.2l11.5,11.5L27.7,33.2l0-8l-26.3,0l0-6.8l26.3-0.1L27.7,10.2 M29.7,8.3L25,10.2l0,5.3L1.4,15.6
			l-2.7,2.7l0,6.8l2.7,2.7l23.6,0l0,5.3l4.7,1.9l11.5-11.5l0-3.9L29.7,8.3L29.7,8.3z"/>
	</g>
</g>
</svg>
