<?xml version="1.0" encoding="utf-8"?>
<!-- Generator: Adobe Illustrator 22.0.1, SVG Export Plug-In . SVG Version: 6.00 Build 0)  -->
<svg version="1.1" id="Layer_1" xmlns="http://www.w3.org/2000/svg" xmlns:xlink="http://www.w3.org/1999/xlink" x="0px" y="0px"
	 viewBox="0 0 84 84" style="enable-background:new 0 0 84 84;" xml:space="preserve">
<style type="text/css">
	.st0{fill:#85458A;}
</style>
<g>
	<rect x="27.6" y="39.7" class="st0" width="19.8" height="2.4"/>
	<rect x="27.6" y="53.4" class="st0" width="9.9" height="2.4"/>
	<rect x="27.6" y="46.6" class="st0" width="19.8" height="2.4"/>
	<rect x="27.5" y="32.9" class="st0" width="12.6" height="2.4"/>
	<path class="st0" d="M51.8,67.7c0-0.9-0.9-1.3-1.7-1.3V69C51.2,68.8,51.8,68.4,51.8,67.7 M46,61.8c0,1,1,1.3,1.8,1.4v-2.7
		C47,60.6,46,60.8,46,61.8 M47.8,71.8c-1.5-0.1-3.2-0.2-4.6-0.8v-2.8c1.5,0.6,3,0.8,4.6,0.9V66c-2.4-0.3-4.9-1.1-4.9-4
		c0-2.8,2.4-3.9,4.9-4.2v-1.5c0-1.5,2.2-1.5,2.2,0v1.4c1.3,0.1,2.8,0.3,4,0.7v2.8c-1.4-0.5-2.8-0.7-4-0.8v3.1
		c2.4,0.4,4.9,1.2,4.9,4.1c0,2.8-2.4,3.9-4.9,4.1v1.4c0,1.5-2.2,1.5-2.2,0C47.8,73.1,47.8,71.8,47.8,71.8z"/>
	<path class="st0" d="M60.4,36.3H49.5V25.3h-26v54.1h37L60.4,36.3L60.4,36.3z M53.3,26.9v5.6h5.6L53.3,26.9z M53.3,21.5l10.9,10.9
		v50.8H19.6V21.5H53.3z"/>
	<polygon class="st0" points="83.4,66.3 70.4,54.9 70.4,62.1 63.7,62.1 63.7,71 70.4,71 70.4,78.1 	"/>
	<polygon class="st0" points="0,41.8 13.1,53.3 13.1,46.1 19.8,46.1 19.8,37.2 13.1,37.2 13.1,30 	"/>
</g>
</svg>
