<?xml version="1.0" encoding="utf-8"?>
<!-- Generator: Adobe Illustrator 22.0.1, SVG Export Plug-In . SVG Version: 6.00 Build 0)  -->
<svg version="1.1" id="Layer_1" xmlns="http://www.w3.org/2000/svg" xmlns:xlink="http://www.w3.org/1999/xlink" x="0px" y="0px"
	 viewBox="0 0 84 84" style="enable-background:new 0 0 84 84;" xml:space="preserve">
<style type="text/css">
	.st0{fill:#85468B;}
	.st1{fill:#EBEBEB;}
</style>
<g>
	<path class="st0" d="M41.4,64.8c0,1.2-0.9,2.2-2.2,2.2s-2.2-0.9-2.2-2.2c0-1.2,0.9-2.2,2.2-2.2C40.4,62.6,41.4,63.6,41.4,64.8
		 M68.5,59.7H9.9V18.6h58.6V59.7z M74.3,15.7c0-1.6-1.3-2.9-2.9-2.9H6.9c-1.6,0-2.9,1.3-2.9,2.9V67c0,1.6,1.3,2.9,2.9,2.9h64.5
		c1.6,0,2.9-1.3,2.9-2.9V15.7z M30.3,78.7H48v-7.3H30.3V78.7z M53.8,83.1H24.5v-2.9h29.4L53.8,83.1L53.8,83.1z"/>
	<g>
		<polygon class="st0" points="25,30.4 30.2,22.6 43.4,35.7 76.1,2.7 80.1,11.8 43.3,52.5 		"/>
		<path class="st1" d="M75.6,5.3l2.7,6.4l-35,38.7L26.8,30.3l3.8-5.5l12.9,12.9L75.6,5.3 M76.6,0.3l-2.9,2.9L43.4,33.7L32.5,22.8
			l-2.4-2.4l-1.9,2.8l-3.8,5.5l-1.2,1.8l1.3,1.6l16.6,20.1l2.1,2.5l2.2-2.4l35.2-38.8l1.2-1.3L81,10.4L78.3,4L76.6,0.3L76.6,0.3z"/>
	</g>
</g>
</svg>
