<?xml version="1.0" encoding="utf-8"?>
<!-- Generator: Adobe Illustrator 21.1.0, SVG Export Plug-In . SVG Version: 6.00 Build 0)  -->
<!DOCTYPE svg PUBLIC "-//W3C//DTD SVG 1.1//EN" "http://www.w3.org/Graphics/SVG/1.1/DTD/svg11.dtd">
<svg version="1.1" id="Layer_1" xmlns="http://www.w3.org/2000/svg" xmlns:xlink="http://www.w3.org/1999/xlink" x="0px" y="0px"
	 width="71.7px" height="62.8px" viewBox="0 0 71.7 62.8" style="enable-background:new 0 0 71.7 62.8;" xml:space="preserve">
<style type="text/css">
	.st0{fill:#FCB415;}
</style>
<g>
	<path class="st0" d="M69.3,0H17.1c-1.3,0-2.4,1.1-2.4,2.4v21C6.3,25.7,0,33.5,0,42.7c0,11.1,9,20,20,20c8.9,0,16.5-5.9,19.1-14
		h15.9v-2.4h-4.7V41h19c1.3,0,2.4-1.1,2.4-2.4V2.4C71.7,1.1,70.6,0,69.3,0z M20,60.4c-9.7,0-17.6-7.9-17.6-17.6S10.3,25.1,20,25.1
		c9.7,0,17.6,7.9,17.6,17.6S29.8,60.4,20,60.4z M43.2,38.4c-0.9,0-1.6-0.7-1.6-1.6c0-0.9,0.7-1.6,1.6-1.6c0.9,0,1.6,0.7,1.6,1.6
		C44.8,37.7,44.1,38.4,43.2,38.4z M68.7,32.7H37.4c-3.5-6-9.9-10-17.3-10c-0.8,0-1.5,0-2.3,0.1V2.9h50.9V32.7z"/>
	<path class="st0" d="M11.8,41.2c-0.6-0.2-1.3,0.2-1.5,0.9c-0.2,0.6,0.2,1.3,0.9,1.5c1.2,0.3,2.2,1.1,2.8,2.1c0.6,1,0.8,2.3,0.4,3.5
		c-0.2,0.6,0.2,1.3,0.8,1.5c0.1,0,0.2,0,0.3,0c0.5,0,1-0.4,1.2-0.9c0.5-1.8,0.3-3.7-0.7-5.3C15.1,42.8,13.6,41.6,11.8,41.2z"/>
	<path class="st0" d="M13.7,35.7c-0.6-0.2-1.3,0.2-1.5,0.8C12,37.2,12.4,37.8,13,38c5.1,1.5,8.2,6.7,7.1,11.9
		c-0.1,0.7,0.3,1.3,0.9,1.4c0.1,0,0.2,0,0.3,0c0.6,0,1.1-0.4,1.2-1C23.9,44,20,37.5,13.7,35.7z"/>
	<path class="st0" d="M15.9,30.3c-0.6-0.2-1.3,0.1-1.5,0.8c-0.2,0.6,0.1,1.3,0.8,1.5c7.5,2.5,12.1,10.2,10.7,18
		c-0.1,0.7,0.3,1.3,1,1.4c0.1,0,0.1,0,0.2,0c0.6,0,1.1-0.4,1.2-1C29.9,42.1,24.6,33.2,15.9,30.3z"/>
</g>
<g>
</g>
<g>
</g>
<g>
</g>
<g>
</g>
<g>
</g>
<g>
</g>
</svg>
