<?xml version="1.0" encoding="utf-8"?>
<!-- Generator: Adobe Illustrator 22.0.1, SVG Export Plug-In . SVG Version: 6.00 Build 0)  -->
<svg version="1.1" xmlns="http://www.w3.org/2000/svg" xmlns:xlink="http://www.w3.org/1999/xlink" x="0px" y="0px"
	 viewBox="0 0 84 84" style="enable-background:new 0 0 84 84;" xml:space="preserve">
<style type="text/css">
	.st0{display:none;}
	.st1{display:inline;}
	.st2{fill:#85458A;}
	.st3{display:inline;fill:#85458A;}
</style>
<g id="Layer_1" class="st0">
	<g class="st1">
		<path class="st2" d="M7.1,60.5c-0.9,0-1.7,0.7-1.7,1.7l0,19.9c0,0.9,0.7,1.7,1.7,1.7l19.9,0c0.9,0,1.7-0.7,1.7-1.7l0-19.9
			c0-0.9-0.7-1.7-1.7-1.7H7.1z M22.5,36.1l2.5,2.2l-8.6,9.6l-7.1-6.1l2.2-2.5l4.6,3.9L22.5,36.1z M7.1,30.6c-0.9,0-1.7,0.7-1.7,1.7
			l0,19.9c0,0.9,0.7,1.7,1.7,1.7h19.9c0.9,0,1.7-0.7,1.7-1.7l0-19.9c0-0.9-0.7-1.7-1.7-1.7L7.1,30.6z M22.5,6.2L25,8.4l-8.6,9.6
			l-7.1-6.1l2.2-2.5l4.6,3.9L22.5,6.2z M7.1,0.6c-0.9,0-1.7,0.7-1.7,1.7l0,19.9c0,0.9,0.7,1.7,1.7,1.7l19.9,0c0.9,0,1.7-0.7,1.7-1.7
			l0-19.9c0-0.9-0.7-1.7-1.7-1.7L7.1,0.6z"/>
		<path class="st2" d="M76.5,9.7H41.7c-1.1,0-1.9,0.9-1.9,1.9v1c0,1.1,0.9,1.9,1.9,1.9h34.8c1.1,0,1.9-0.9,1.9-1.9v-1
			C78.4,10.6,77.6,9.7,76.5,9.7z"/>
		<path class="st2" d="M76.5,39.5H41.7c-1.1,0-1.9,0.9-1.9,1.9v1c0,1.1,0.9,1.9,1.9,1.9h34.8c1.1,0,1.9-0.9,1.9-1.9v-1
			C78.4,40.4,77.6,39.5,76.5,39.5z"/>
		<path class="st2" d="M76.5,69.3H41.7c-1.1,0-1.9,0.9-1.9,1.9v1c0,1.1,0.9,1.9,1.9,1.9h34.8c1.1,0,1.9-0.9,1.9-1.9v-1
			C78.4,70.1,77.6,69.3,76.5,69.3z"/>
	</g>
</g>
<g id="Layer_2">
	<g>
		<path class="st2" d="M38.9,34.7c-1.7,0.7-3,2.2-3.5,4.1c-0.9,3.4,1.1,6.9,4.5,7.9c1.9,0.5,3.8,0.1,5.3-0.9c0,0,0.4-0.3,0.4-0.3
			c0,0,0.1,0,0.1-0.1c1-0.7,34.4-25.2,33.7-26.4C78.7,17.7,38.9,34.7,38.9,34.7z"/>
		<path class="st2" d="M51.4,20.4c-2.3-2.1-5.1-3.7-8.2-4.7c-3.1-1-6.4-1.4-9.8-1c-0.3,0-0.5-0.2-0.6-0.5c0-0.3,0.1-0.5,0.4-0.6
			c3.4-1.1,7-1.5,10.7-1.1c3.7,0.4,7.3,1.5,10.6,3.5l0.1,0c1.3,0.7,1.7,2.4,1,3.7c-0.7,1.3-2.4,1.7-3.7,1
			C51.7,20.6,51.5,20.5,51.4,20.4z"/>
		<path class="st2" d="M64.3,14.6c-1.8-1.8-3.8-3.5-5.9-4.9c-2.2-1.4-4.5-2.6-7-3.6c-4.9-1.9-10.3-2.7-15.7-2.3
			c-0.3,0-0.6-0.2-0.6-0.5c0-0.3,0.2-0.5,0.4-0.6C41,1.6,46.8,1.6,52.4,2.9c2.8,0.7,5.5,1.6,8.2,2.9c2.6,1.3,5.1,2.8,7.4,4.7l0,0
			c1.2,0.9,1.4,2.7,0.5,3.9c-0.9,1.2-2.7,1.4-3.9,0.5C64.5,14.8,64.4,14.7,64.3,14.6z"/>
		<path class="st2" d="M42,82.5C19.1,82.5,0.5,63.9,0.5,41c0-14.5,7.7-28.1,20.2-35.6c1.9-1.1,4.3-0.5,5.4,1.3
			c1.1,1.9,0.5,4.3-1.3,5.4C14.4,18.3,8.3,29.1,8.3,41c0,18.5,15.1,33.6,33.6,33.6c18.5,0,33.6-15.1,33.6-33.6
			c0-1.9-0.2-3.7-0.5-5.6c-0.4-2.1,1.1-4.2,3.2-4.5c2.1-0.4,4.2,1.1,4.5,3.2c0.4,2.3,0.6,4.6,0.6,6.9C83.5,63.9,64.8,82.5,42,82.5z"
			/>
	</g>
</g>
<g id="Layer_3" class="st0">
	<g class="st1">
		<path class="st2" d="M14.8,67.5h10.9c0.6,0,1.2-0.5,1.2-1.2V32.7c0-0.6-0.5-1.2-1.2-1.2H14.8c-0.6,0-1.2,0.5-1.2,1.2v33.6
			C13.6,67,14.1,67.5,14.8,67.5z"/>
		<path class="st2" d="M37.4,67.5H48c0.7,0,1.3-0.6,1.3-1.3v-45c0-0.7-0.6-1.3-1.3-1.3H37.4c-0.7,0-1.3,0.6-1.3,1.3v45
			C36.1,67,36.7,67.5,37.4,67.5z"/>
		<path class="st2" d="M59.8,67.5h10.9c0.6,0,1.1-0.5,1.1-1.1V9.3c0-0.6-0.5-1.1-1.1-1.1H59.8c-0.6,0-1.1,0.5-1.1,1.1v57.1
			C58.6,67,59.2,67.5,59.8,67.5z"/>
		<path class="st2" d="M76.6,75.9H7.8c-1,0-1.8-0.8-1.8-1.8s0.8-1.8,1.8-1.8h68.8c1,0,1.8,0.8,1.8,1.8S77.6,75.9,76.6,75.9z"/>
	</g>
</g>
<g id="Layer_4" class="st0">
	<path class="st3" d="M46.5,68.5l4.3,0.9l0.9,4.4L46,75.5l-1.1-1.2L46.5,68.5z M58.6,52.8L44.6,66.6c-0.2,0.2-0.4,0.4-0.4,0.6
		l-3,10.2c-0.1,0.4,0,0.9,0.4,1.2c0.2,0.2,0.6,0.4,0.9,0.4c0.1,0,0.2-0.1,0.4-0.1l10.2-3c0.2-0.1,0.5-0.2,0.6-0.4l13.9-13.9
		L58.6,52.8z M34.1,46.6v5.7h15l5.7-5.7H34.1z M23.2,46.6v5.7h5.7v-5.7H23.2z M67.1,45.7c-0.8,0-1.5,0.3-2.1,0.9L61.5,50l8.6,8.7
		l3.4-3.5c1.2-1.2,1.2-3,0-4.2l-4.2-4.3C68.7,46,67.8,45.7,67.1,45.7z M34.1,35.3V41H55v-5.7H34.1z M23.2,35.3V41h5.7v-5.7H23.2z
		 M34.1,24v5.7H55V24H34.1z M23.2,24v5.7h5.7V24H23.2z M12.7,5.9c-1.8,0-3.3,1.5-3.3,3.3v61.3c0,1.8,1.5,3.3,3.3,3.3h23.7l1.6-5.7
		H15.1V12h48.4v29c1.2-0.6,2.5-0.9,3.8-0.9c0.6,0,1.3,0,1.9,0.2V9.2c0-1.8-1.5-3.3-3.3-3.3H12.7z"/>
</g>
</svg>
