<?xml version="1.0" encoding="utf-8"?>
<!-- Generator: Adobe Illustrator 21.1.0, SVG Export Plug-In . SVG Version: 6.00 Build 0)  -->
<!DOCTYPE svg PUBLIC "-//W3C//DTD SVG 1.1//EN" "http://www.w3.org/Graphics/SVG/1.1/DTD/svg11.dtd">
<svg version="1.1" id="Layer_1" xmlns="http://www.w3.org/2000/svg" xmlns:xlink="http://www.w3.org/1999/xlink" x="0px" y="0px"
	 width="64.3px" height="60.2px" viewBox="0 0 64.3 60.2" style="enable-background:new 0 0 64.3 60.2;" xml:space="preserve">
<style type="text/css">
	.st0{fill:#FCB415;}
</style>
<g>
	<path class="st0" d="M7.8,52.8h9.6c0.6,0,1-0.5,1-1V21.9c0-0.6-0.5-1-1-1H7.8c-0.6,0-1,0.5-1,1v29.9C6.7,52.3,7.2,52.8,7.8,52.8z"
		/>
	<path class="st0" d="M27.9,52.8h9.5c0.6,0,1.1-0.5,1.1-1.1v-40c0-0.6-0.5-1.1-1.1-1.1h-9.5c-0.6,0-1.1,0.5-1.1,1.1v40
		C26.7,52.3,27.3,52.8,27.9,52.8z"/>
	<path class="st0" d="M47.8,52.8h9.7c0.6,0,1-0.5,1-1V1c0-0.6-0.5-1-1-1h-9.7c-0.6,0-1,0.5-1,1v50.7C46.8,52.3,47.2,52.8,47.8,52.8z
		"/>
	<path class="st0" d="M62.7,60.2H1.6c-0.9,0-1.6-0.7-1.6-1.6C0,57.7,0.7,57,1.6,57h61.1c0.9,0,1.6,0.7,1.6,1.6
		C64.3,59.5,63.6,60.2,62.7,60.2z"/>
</g>
<g>
</g>
<g>
</g>
<g>
</g>
<g>
</g>
<g>
</g>
<g>
</g>
</svg>
