<?xml version="1.0" encoding="utf-8"?>
<!-- Generator: Adobe Illustrator 21.1.0, SVG Export Plug-In . SVG Version: 6.00 Build 0)  -->
<!DOCTYPE svg PUBLIC "-//W3C//DTD SVG 1.1//EN" "http://www.w3.org/Graphics/SVG/1.1/DTD/svg11.dtd">
<svg version="1.1" id="Layer_1" xmlns="http://www.w3.org/2000/svg" xmlns:xlink="http://www.w3.org/1999/xlink" x="0px" y="0px"
	 width="67.1px" height="50.3px" viewBox="0 0 67.1 50.3" style="enable-background:new 0 0 67.1 50.3;" xml:space="preserve">
<style type="text/css">
	.st0{fill:#FCB415;}
</style>
<g>
	<path class="st0" d="M62.2,27.3c-1.2,0-2.1-0.9-2.1-2.1c0-1.2,0.9-2.1,2.1-2.1c1.2,0,2.1,0.9,2.1,2.1
		C64.3,26.3,63.4,27.3,62.2,27.3 M62.2,20.3c-1.2,0-2.1-0.9-2.1-2.1c0-1.2,0.9-2.1,2.1-2.1c1.2,0,2.1,0.9,2.1,2.1
		C64.3,19.3,63.4,20.3,62.2,20.3 M62.2,34.3c-1.2,0-2.1-0.9-2.1-2.1c0-1.2,0.9-2.1,2.1-2.1c1.2,0,2.1,0.9,2.1,2.1
		C64.3,33.3,63.4,34.3,62.2,34.3 M56.9,46.2H6c-0.2,0-0.4-0.2-0.4-0.4V4.6c0-0.2,0.2-0.4,0.4-0.4h50.9c0.2,0,0.4,0.2,0.4,0.4v41.1
		C57.3,46,57.1,46.2,56.9,46.2z M64.3,0H2.8C1.3,0,0,1.3,0,2.8v44.8c0,1.5,1.3,2.8,2.8,2.8h61.5c1.5,0,2.8-1.3,2.8-2.8V2.8
		C67.1,1.3,65.9,0,64.3,0"/>
	<g>
		<path class="st0" d="M22.8,23l3-5.5c0.1-0.1,0.2-0.1,0.3,0l5.2,9.6c0.1,0.2,0.3,0.2,0.4,0l5.4-11.6c0.1-0.1,0.2-0.1,0.3,0l3.7,7.1
			c0.1,0.2,0.3,0.3,0.6,0.3h5.1c0.2-0.7,0.3-1.4,0.3-2.1c0-7.4-7.4-12.5-13.5-9c-0.6,0.3-1.1,0.7-1.6,1.2c-0.2,0.1-0.4,0.1-0.6,0
			c-0.5-0.5-1-0.8-1.6-1.2c-5.9-3.4-13.5,1.4-13.5,9c0,0.9,0.1,1.7,0.3,2.5h5.8C22.5,23.3,22.7,23.2,22.8,23z"/>
		<path class="st0" d="M39.5,24.8l-2-4c-0.1-0.1-0.2-0.1-0.3,0l-5.4,11.6c-0.1,0.1-0.2,0.1-0.3,0l-5.5-10c-0.1-0.1-0.2-0.1-0.3,0
			l-1.5,2.8c-0.1,0.1-0.2,0.2-0.4,0.2h-6.6l0.1,0.3c2.9,5.8,9.9,10.6,13.7,14.6c0.2,0.2,0.6,0.2,0.8,0c4-4.2,11.2-9.4,14-15.2L46,25
			h-6.1C39.8,25,39.6,24.9,39.5,24.8z"/>
	</g>
</g>
<g>
</g>
<g>
</g>
<g>
</g>
<g>
</g>
<g>
</g>
<g>
</g>
</svg>
