<?xml version="1.0" encoding="utf-8"?>
<!-- Generator: Adobe Illustrator 22.0.1, SVG Export Plug-In . SVG Version: 6.00 Build 0)  -->
<svg version="1.1" id="Layer_1" xmlns="http://www.w3.org/2000/svg" xmlns:xlink="http://www.w3.org/1999/xlink" x="0px" y="0px"
	 viewBox="0 0 106 78.4" style="enable-background:new 0 0 106 78.4;" xml:space="preserve">
<style type="text/css">
	.st0{fill:#85458A;}
</style>
<g>
	<rect x="35.1" y="23.1" class="st0" width="25.2" height="3.1"/>
	<rect x="35.1" y="40.5" class="st0" width="12.6" height="3.1"/>
	<rect x="35.1" y="31.8" class="st0" width="25.2" height="3.1"/>
	<rect x="34.9" y="14.4" class="st0" width="16" height="3.1"/>
	<path class="st0" d="M65.8,58.6c0-1.2-1.2-1.6-2.2-1.7v3.4C65,60.1,65.8,59.5,65.8,58.6 M58.4,51.1c0,1.3,1.3,1.6,2.3,1.8v-3.4
		C59.7,49.6,58.4,49.9,58.4,51.1 M60.7,63.8c-1.9-0.1-4.1-0.2-5.9-1v-3.5c1.9,0.7,3.8,1,5.9,1.1v-3.9c-3.1-0.4-6.2-1.4-6.2-5.1
		c0-3.5,3.1-5,6.2-5.4v-1.9c0-1.9,2.8-1.9,2.8,0v1.8c1.7,0.1,3.5,0.4,5.1,0.9v3.5c-1.8-0.6-3.6-0.9-5.1-1v4c3,0.5,6.2,1.5,6.2,5.2
		c0,3.5-3.1,4.9-6.2,5.2v1.8c0,1.9-2.8,1.9-2.8,0V63.8z"/>
	<path class="st0" d="M76.7,18.7H62.9V4.8H29.8v68.7h47V18.7z M67.7,6.8v7.1h7.1L67.7,6.8z M67.7,0l13.9,13.8v64.6H24.9V0H67.7z"/>
	<polygon class="st0" points="106,56.9 89.4,42.4 89.4,51.5 80.9,51.5 80.9,62.8 89.4,62.8 89.4,71.9 	"/>
	<polygon class="st0" points="0,25.8 16.7,40.3 16.7,31.2 25.2,31.2 25.2,19.9 16.7,19.9 16.7,10.8 	"/>
</g>
<g>
</g>
<g>
</g>
<g>
</g>
<g>
</g>
<g>
</g>
<g>
</g>
<g>
</g>
<g>
</g>
<g>
</g>
<g>
</g>
<g>
</g>
<g>
</g>
<g>
</g>
<g>
</g>
<g>
</g>
</svg>
