<?xml version="1.0" encoding="utf-8"?>
<!-- Generator: Adobe Illustrator 21.1.0, SVG Export Plug-In . SVG Version: 6.00 Build 0)  -->
<!DOCTYPE svg PUBLIC "-//W3C//DTD SVG 1.1//EN" "http://www.w3.org/Graphics/SVG/1.1/DTD/svg11.dtd">
<svg version="1.1" id="Layer_1" xmlns="http://www.w3.org/2000/svg" xmlns:xlink="http://www.w3.org/1999/xlink" x="0px" y="0px"
	 width="108.8px" height="27.3px" viewBox="0 0 108.8 27.3" style="enable-background:new 0 0 108.8 27.3;" xml:space="preserve">
<style type="text/css">
	.st0{fill:#CECDCD;}
</style>
<g>
	<path class="st0" d="M27.9,19.1c-1.3,0-2.1-0.3-2.2-1.4c0-0.6,0-8.2,0-8.2h5.4v-4h-5.4V0h-4v5.5H8.1c0,0-5.6-0.2-5.6,5.4
		c0,5.6,5.6,5.4,5.6,5.4h6.6c1.2,0,1.4,1,1.4,1.4c0,0.4-0.2,1.4-1.4,1.4H0v4h14.7c0,0,5.7,0.2,5.7-5.4c0-5.5-5.7-5.4-5.7-5.4l-6.6,0
		c-1.2,0-1.4-1-1.4-1.4c0-0.4,0.2-1.4,1.4-1.4c1.2,0,13.8,0,13.8,0l0,8.2c0,0-0.5,5.4,5.2,5.4h4.2v-4H27.9z"/>
	<path class="st0" d="M41.6,13.4h4v-2.6c0-5.6-5.5-5.3-5.5-5.3l-7.4,0v17.6h4l0-13.5l3.4,0c1,0,1.5,0.6,1.5,1.7V13.4z"/>
	<path class="st0" d="M104.8,13.4h4v-2.6c0-5.6-5.5-5.3-5.5-5.3l-7.4,0v17.6h4l0-13.5l3.4,0c1,0,1.5,0.6,1.5,1.7V13.4z"/>
	<path class="st0" d="M45.3,23.3v4h5c0.3,0,1.9,0,3.2-0.8c1.9-1.1,2.8-4,3.1-4.8c0.3-0.9,4.9-16.2,4.9-16.2H57l-3.5,12.5L50.1,5.5
		h-4.4l4.9,16.2l0.1,0.4c0.2,0.6-0.1,1.2-0.7,1.3H45.3z"/>
	<polygon class="st0" points="62.7,0 62.7,23.1 66.6,23.1 66.6,18.1 68.9,15.3 73.2,23.1 77.8,23.1 71.7,12.2 77.3,5.5 72.1,5.5 
		66.6,12.1 66.6,0 	"/>
	<path class="st0" d="M94.3,14.2c0-4.9-3.7-8.8-8.8-8.8c-5.5,0.1-8.8,4-8.8,8.8c0,4.8,3.7,8.9,8.6,8.9H91v-4h-5.4
		c-2.1,0-4.3-1.5-4.6-3.3l13.1,0C94.3,15.2,94.3,14.7,94.3,14.2 M81,12.3c0.3-1.5,2.4-3.1,4.5-3.1s4.1,1.4,4.5,3.1H81z"/>
</g>
<g>
</g>
<g>
</g>
<g>
</g>
<g>
</g>
<g>
</g>
<g>
</g>
</svg>
