<?xml version="1.0" encoding="utf-8"?>
<!-- Generator: Adobe Illustrator 22.0.1, SVG Export Plug-In . SVG Version: 6.00 Build 0)  -->
<svg version="1.1" id="Layer_1" xmlns="http://www.w3.org/2000/svg" xmlns:xlink="http://www.w3.org/1999/xlink" x="0px" y="0px"
	 viewBox="0 0 236 280.1" style="enable-background:new 0 0 236 280.1;" xml:space="preserve">
<style type="text/css">
	.st0{fill:#CDCDCD;}
</style>
<g>
	<path class="st0" d="M221.7,29.9v236.2H29.9v14h191.4H236v-14.7V29.9H221.7z M14.8,14.2h176.5V236H14.8V14.2z M0,0v14.7v220.8v14.7
		h14.7h176.6h14.7v-14.7V14.7V0h-14.7H14.7H0z"/>
	<g>
		<g>
			<path class="st0" d="M94.1,116c1.4,0.3,2.8,0.5,4.1,0.5c5.6,0,12.7-3.2,12.7-9.7c0-4-3-7.4-7.2-7.4c-4.5,0-6.9,3.2-6.9,7.5H77.3
				c0.1-14.9,13.1-23.1,26.9-23.1c6.2,0,12.4,2,17.2,6.1c4.9,4.1,8.5,10.5,8.5,17c0,11.1-7.8,18.1-17.8,21.2v7h-18V116z
				 M113.9,154.6c0,5.7-4.7,10.5-10.5,10.5c-5.8,0-10.5-4.8-10.5-10.5c0-5.8,4.7-10.5,10.5-10.5
				C109.2,144.2,113.9,148.8,113.9,154.6z"/>
		</g>
	</g>
</g>
<g>
</g>
<g>
</g>
<g>
</g>
<g>
</g>
<g>
</g>
<g>
</g>
<g>
</g>
<g>
</g>
<g>
</g>
<g>
</g>
<g>
</g>
<g>
</g>
<g>
</g>
<g>
</g>
<g>
</g>
</svg>
