<?xml version="1.0" encoding="utf-8"?>
<!-- Generator: Adobe Illustrator 21.1.0, SVG Export Plug-In . SVG Version: 6.00 Build 0)  -->
<!DOCTYPE svg PUBLIC "-//W3C//DTD SVG 1.1//EN" "http://www.w3.org/Graphics/SVG/1.1/DTD/svg11.dtd">
<svg version="1.1" id="Layer_1" xmlns="http://www.w3.org/2000/svg" xmlns:xlink="http://www.w3.org/1999/xlink" x="0px" y="0px"
	 width="70.1px" height="59.9px" viewBox="0 0 70.1 59.9" style="enable-background:new 0 0 70.1 59.9;" xml:space="preserve">
<style type="text/css">
	.st0{fill:#85468B;}
	.st1{fill:#FFFFFF;}
</style>
<g>
	<path class="st0" d="M35.1,40.6c0.9,0,1.8,0.2,2.4,0.9c0.7,0.7,1.1,1.5,1.1,2.4c0,1.1-0.4,1.8-1.1,2.4c-0.7,0.7-1.5,0.9-2.4,0.9
		s-1.8-0.2-2.4-0.9c-0.7-0.7-1.1-1.3-1.1-2.4c0-0.9,0.4-1.8,1.1-2.4C33.3,40.8,34.2,40.6,35.1,40.6z"/>
	<path class="st0" d="M35.1,21.3c1.1,0,1.8,0.4,2.4,1.1c0.7,0.7,0.9,1.5,0.9,2.4c0,0.9-1.4,7.4-1.8,12h-3.3
		c-0.4-4.7-1.7-11.1-1.7-12c0-0.9,0.4-1.8,1.1-2.4C33.3,21.8,34.2,21.3,35.1,21.3z"/>
	<path class="st0" d="M34.9,6.1c0.2,0.2,0.4,0.4,0.6,0.8l0,0l0,0L64,54l0,0c-0.2,0-0.5,0-0.8,0H6.5c-0.1,0-0.2,0-0.4,0
		c0,0,0,0,0-0.1L34.4,6.9C34.6,6.6,34.8,6.3,34.9,6.1 M34.9,0c-2.3,0-4.5,1.4-6.1,4.3L1.4,49.9c-3.3,5.7-0.7,10,5.9,10h55
		c7,0,9.7-4.7,6.3-10L41.1,4.3C39.5,1.4,37.1,0,34.9,0L34.9,0z"/>
</g>
</svg>
