<?xml version="1.0" encoding="utf-8"?>
<!-- Generator: Adobe Illustrator 21.1.0, SVG Export Plug-In . SVG Version: 6.00 Build 0)  -->
<!DOCTYPE svg PUBLIC "-//W3C//DTD SVG 1.1//EN" "http://www.w3.org/Graphics/SVG/1.1/DTD/svg11.dtd">
<svg version="1.1" id="Layer_1" xmlns="http://www.w3.org/2000/svg" xmlns:xlink="http://www.w3.org/1999/xlink" x="0px" y="0px"
	 width="68px" height="68px" viewBox="0 0 68 68" style="enable-background:new 0 0 68 68;" xml:space="preserve">
<style type="text/css">
	.st0{fill:#85468B;}
	.st1{fill:#FFFFFF;}
</style>
<path class="st0" d="M34,0C15.3,0,0,15.3,0,34s15.3,34,34,34s34-15.3,34-34S52.8,0,34,0z M25.4,6c-2.3,2.3-4.2,5.6-5.7,9.4
	c-2.3-0.6-4.4-1.4-6.3-2.3C16.7,9.9,20.8,7.4,25.4,6z M11.5,15.3c2.2,1.1,4.7,2,7.3,2.8c-1.3,4.3-2.1,9.2-2.2,14.5H4.8
	C5.1,26,7.5,20,11.5,15.3z M4.8,35.4h11.8c0.1,5.3,0.9,10.2,2.2,14.5c-2.7,0.7-5.1,1.7-7.3,2.8C7.5,48,5.1,42,4.8,35.4z M13.4,54.9
	c1.9-0.9,4-1.7,6.3-2.3c1.5,3.9,3.4,7.1,5.7,9.4C20.8,60.6,16.7,58.1,13.4,54.9z M32.6,63.2c-4-0.8-7.6-5.1-10.1-11.3
	c3.2-0.7,6.6-1,10.1-1.1V63.2z M32.6,48c-3.8,0.1-7.5,0.5-11,1.3c-1.3-4.1-2.1-8.8-2.2-13.9h13.2V48z M32.6,32.6H19.4
	c0.1-5,0.9-9.8,2.2-13.9c3.5,0.7,7.2,1.2,11,1.2V32.6z M32.6,17.2c-3.5-0.1-6.9-0.5-10.1-1.1c2.4-6.2,6-10.5,10.1-11.3V17.2z
	 M63.3,32.6H51.4c-0.1-5.3-0.9-10.2-2.2-14.5c2.7-0.7,5.1-1.7,7.3-2.8C60.5,20,62.9,26,63.3,32.6z M54.6,13.1
	c-1.9,0.9-4,1.7-6.3,2.3c-1.5-3.9-3.4-7.1-5.7-9.4C47.2,7.4,51.3,9.9,54.6,13.1z M35.4,4.8c4,0.8,7.6,5.1,10.1,11.3
	c-3.2,0.7-6.6,1-10.1,1.1V4.8z M35.4,20c3.8-0.1,7.5-0.5,11-1.3c1.3,4.1,2.1,8.8,2.2,13.9H35.4V20z M35.4,35.4h13.2
	c-0.1,5-0.9,9.8-2.2,13.9c-3.5-0.7-7.2-1.2-11-1.2V35.4z M35.4,63.2V50.8c3.5,0.1,6.9,0.5,10.1,1.1C43.1,58.1,39.4,62.4,35.4,63.2z
	 M42.6,62c2.3-2.3,4.2-5.6,5.7-9.4c2.3,0.6,4.4,1.4,6.3,2.3C51.3,58.1,47.2,60.6,42.6,62z M56.5,52.7c-2.2-1.1-4.7-2-7.3-2.8
	c1.3-4.3,2.1-9.2,2.2-14.5h11.8C62.9,42,60.5,48,56.5,52.7z"/>
</svg>
