<?xml version="1.0" encoding="utf-8"?>
<!-- Generator: Adobe Illustrator 21.1.0, SVG Export Plug-In . SVG Version: 6.00 Build 0)  -->
<!DOCTYPE svg PUBLIC "-//W3C//DTD SVG 1.1//EN" "http://www.w3.org/Graphics/SVG/1.1/DTD/svg11.dtd">
<svg version="1.1" id="Layer_1" xmlns="http://www.w3.org/2000/svg" xmlns:xlink="http://www.w3.org/1999/xlink" x="0px" y="0px"
	 width="80.3px" height="75.3px" viewBox="0 0 80.3 75.3" style="enable-background:new 0 0 80.3 75.3;" xml:space="preserve">
<style type="text/css">
	.st0{fill:#85468B;}
	.st1{fill:#EBEBEB;}
</style>
<g>
	<path class="st0" d="M74.4,32.6c-1.4,0-2.5-1.1-2.5-2.5s1.1-2.5,2.5-2.5c1.4,0,2.5,1.1,2.5,2.5S75.8,32.6,74.4,32.6 M74.4,24.3
		c-1.4,0-2.5-1.1-2.5-2.5s1.1-2.5,2.5-2.5c1.4,0,2.5,1.1,2.5,2.5S75.8,24.3,74.4,24.3 M74.4,41c-1.4,0-2.5-1.1-2.5-2.5
		c0-1.4,1.1-2.5,2.5-2.5c1.4,0,2.5,1.1,2.5,2.5C76.9,39.9,75.8,41,74.4,41 M68.6,55.2H6.7V5h61.9V55.2z M76.9,0H3.3
		C1.5,0,0,1.5,0,3.3v53.5c0,1.8,1.5,3.3,3.3,3.3h73.6c1.8,0,3.3-1.5,3.3-3.3V3.3C80.3,1.5,78.8,0,76.9,0"/>
	<rect x="23.9" y="53.9" class="st1" width="37.9" height="7.6"/>
	<path class="st0" d="M59.6,46.5c0.1-1.6-1.1-2.9-2.7-3c-1.6-0.1-2.9,0.9-3,2.7c0,0,0-0.5-0.1,2c-0.2-0.2-0.5-0.4-0.8-0.5
		c0-3.4-0.1-3.9-0.1-3.9c0.1-1.6-1.1-2.9-2.7-3c-1.6-0.1-2.9,0.9-3,2.7c0,0,0-0.5-0.1,1.9c-0.3,0-0.5-0.1-0.8-0.1
		c0-3.5-0.1-4.3-0.1-4.3c0.1-1.6-1.1-2.9-2.7-3c-1.6-0.1-2.9,0.9-3,2.7c0,0,0,0.8-0.1,4.5c-0.4,0-0.7,0.1-1,0.3
		c0-3.7-0.2-18.4-0.2-18.4c0.1-1.6-1.1-2.9-2.7-3c-1.6-0.1-2.9,0.9-3,2.7c0,0-0.1,16.2-0.3,26c0,1.2-1.7,1.5-1.7,0.2
		c-0.1-4.4-0.2-11.6-0.2-11.6c-0.1-1.6-1.4-2.8-3-2.7c-1.6,0.1-2.8,1.2-2.7,3c0,0-0.1,16.3,0.1,18.5l0.1,0c0,0,0,0,0,0
		c0,8.3,6.7,15,15,15h3.9c8.3,0,15-6.7,15-15c0-0.3,0-0.6,0-1l0.1-0.1C59.9,59,59.6,46.5,59.6,46.5"/>
</g>
</svg>
