<?xml version="1.0" encoding="utf-8"?>
<!-- Generator: Adobe Illustrator 21.1.0, SVG Export Plug-In . SVG Version: 6.00 Build 0)  -->
<!DOCTYPE svg PUBLIC "-//W3C//DTD SVG 1.1//EN" "http://www.w3.org/Graphics/SVG/1.1/DTD/svg11.dtd">
<svg version="1.1" id="Layer_1" xmlns="http://www.w3.org/2000/svg" xmlns:xlink="http://www.w3.org/1999/xlink" x="0px" y="0px"
	 width="74.4px" height="62.5px" viewBox="0 0 74.4 62.5" style="enable-background:new 0 0 74.4 62.5;" xml:space="preserve">
<style type="text/css">
	.st0{fill:#85468B;}
</style>
<g>
	<path class="st0" d="M1.2,0L1.2,0C0.5,0.1,0,0.8,0,1.5V61c0,0.8,0.7,1.5,1.5,1.5h71.5c0.8,0,1.5-0.7,1.5-1.5V1.5
		c0-0.8-0.7-1.5-1.5-1.5H1.5c0,0-0.1,0-0.1,0C1.3,0,1.3,0,1.2,0L1.2,0z M4.1,3.9h66.2v54.7H4.1V32.7h10.1c0.4,0,0.8-0.1,1-0.4
		l4.2-4.2l3.5,9.4c0.5,1.3,2.4,1.2,2.7-0.1l5-19.9l2.2,34c0.1,1.5,2.3,1.8,2.8,0.4l7.6-22.6l4.2,8.4c0.5,1.1,2.1,1.1,2.6,0l2.5-4.9
		h6.7c0.5,0.9,1.4,1.4,2.5,1.4c1.6,0,2.9-1.3,2.9-2.9s-1.3-2.9-2.9-2.9c-1.1,0-2,0.6-2.5,1.4h-7.6c-0.6,0-1.1,0.3-1.3,0.8l-1.6,3.1
		l-4.5-8.9c-0.6-1.1-2.2-1-2.7,0.2l-6.3,19L32.9,8.1c0-0.8-0.8-1.4-1.6-1.3c-0.6,0.1-1.1,0.5-1.3,1.1L24,32.2L21.3,25
		c-0.4-1-1.6-1.3-2.4-0.5l-5.4,5.4H4.1V3.9L4.1,3.9z"/>
</g>
</svg>
