<?xml version="1.0" encoding="utf-8"?>
<!-- Generator: Adobe Illustrator 22.0.1, SVG Export Plug-In . SVG Version: 6.00 Build 0)  -->
<svg version="1.1" id="Layer_1" xmlns="http://www.w3.org/2000/svg" xmlns:xlink="http://www.w3.org/1999/xlink" x="0px" y="0px"
	 viewBox="0 0 87.5 60.4" style="enable-background:new 0 0 87.5 60.4;" xml:space="preserve">
<style type="text/css">
	.st0{fill:#85458A;}
	.st1{fill:#EBEBEB;}
</style>
<g>
	<g>
		<path class="st0" d="M62.5,0H2.6C1.2,0,0,1.2,0,2.6V46c0,1.4,1.2,2.6,2.6,2.6h59.9c1.4,0,2.6-1.2,2.6-2.6V2.6
			C65.1,1.2,63.9,0,62.5,0z M60.9,39.6H4.1V4.2h56.7V39.6z"/>
		<path class="st0" d="M45.7,56.4h-5.4v-3.6H24.7v3.6h-5.4c-2.1,0-3.8,1.8-3.8,3.9h33.9C49.5,58.2,47.8,56.4,45.7,56.4z"/>
	</g>
	<g>
		<polygon class="st0" points="73.7,33.2 73.7,26.5 48.8,26.5 47.4,25.1 47.4,18.3 48.8,16.9 73.7,16.9 73.7,10.2 76.1,9.3 
			87.5,20.7 87.5,22.7 76.1,34.2 		"/>
		<path class="st1" d="M75.1,10.2l11.5,11.5L75.1,33.2l0-8l-26.3,0l0-6.8l26.3-0.1L75.1,10.2 M77,8.3l-4.7,1.9l0,5.3l-23.6,0.1
			L46,18.3l0,6.8l2.7,2.7l23.6,0l0,5.3l4.7,1.9l11.5-11.5l0-3.9L77,8.3L77,8.3z"/>
	</g>
</g>
<g>
</g>
<g>
</g>
<g>
</g>
<g>
</g>
<g>
</g>
<g>
</g>
<g>
</g>
<g>
</g>
<g>
</g>
<g>
</g>
<g>
</g>
<g>
</g>
<g>
</g>
<g>
</g>
<g>
</g>
</svg>
