<?xml version="1.0" encoding="utf-8"?>
<!-- Generator: Adobe Illustrator 21.1.0, SVG Export Plug-In . SVG Version: 6.00 Build 0)  -->
<!DOCTYPE svg PUBLIC "-//W3C//DTD SVG 1.1//EN" "http://www.w3.org/Graphics/SVG/1.1/DTD/svg11.dtd">
<svg version="1.1" id="Layer_1" xmlns="http://www.w3.org/2000/svg" xmlns:xlink="http://www.w3.org/1999/xlink" x="0px" y="0px"
	 width="76.8px" height="69.3px" viewBox="0 0 76.8 69.3" style="enable-background:new 0 0 76.8 69.3;" xml:space="preserve">
<style type="text/css">
	.st0{fill:#85468B;}
	.st1{fill:#FFFFFF;}
</style>
<g>
	<path class="st0" d="M67.2,56.9c5.8-4.1,9.5-10.2,9.5-16.9c0-10-7.9-18.2-18.5-21.2C54.9,7.9,43.2,0,29.6,0C13.5,0,0,11.1,0,25.2
		c0,7.2,3.9,13.5,9.5,18.1c-0.4,2.9-1.6,5.1-2.9,6.7c-0.7,0.9-1.3,1.7-1.9,2.3c-0.3,0.3-0.6,0.6-0.9,1.2c-0.2,0.3-0.4,0.6-0.6,1.2
		c-0.1,0.6,0,1.6,0.6,2.4c0,0,0.2,0.4,0.5,0.6c0.2,0.2,0.6,0.4,0.6,0.4c2.6,1.3,5.4,1.1,8,0.4c2.6-0.7,5-1.9,7.4-3.1
		c2.4-1.2,4.6-2.6,6.4-3.5c0.2-0.1,0.4-0.2,0.6-0.3c4.7,6.4,13.2,10.7,22.8,10.7c0.1,0,0.2,0,0.3,0c3.5,0,12.8,9.1,20.1,6.7
		c0.3-0.1,0.7-0.7,0.1-1.4C69.5,66.1,67.5,63,67.2,56.9z M25.8,46.9c-0.3,0.1-0.5,0.3-0.8,0.4c-0.9,0.5-1.8,1-2.7,1.5
		c-1.1,0.6-2.2,1.3-3.4,1.9c-1.9,1-3.7,1.8-5.4,2.3c-0.1,0-1.6,0.4-2.4,0.4c-0.2,0-0.7,0-1-0.4c-0.6-0.8,0.2-1.7,0.9-2.6
		c0.1-0.1,0.2-0.3,0.3-0.4c1.3-1.9,2.9-4.6,3.1-8.3l0-0.5L14,41c-5.7-4-8.9-9.7-8.9-15.6c0-11.2,11-20.3,24.5-20.3
		c13.5,0,24.5,9.1,24.5,20.3c0,11.2-11,20.3-24.5,20.3C28.2,45.7,27.2,46.2,25.8,46.9z M64.1,63.7l-0.2,0.1h-0.2
		c-0.3,0-0.8-0.2-4.4-2.6l-0.1-0.1l-0.1-0.1c-4.2-2.9-6.8-3.4-8.3-3.4l-0.1,0c-0.1,0-0.2,0-0.4,0c-5.7,0-10.8-2.2-15-6.4l-1.1-1.1
		l1.5-0.2C49,48.7,58.6,39.1,58.6,27.3c0-0.3,0-0.7,0-1.1l-0.1-1.1l1,0.4c7.3,2.8,12,8.8,12,15.3c0,5-2.6,9.7-7.1,12.9L63,54.9
		c-0.1,0.7-0.2,2.5,0.1,3.8c0.3,1.1,0.6,2.1,0.9,2.9C64.4,62.8,64.6,63.3,64.1,63.7z"/>
	<g>
		<rect x="27.2" y="13.9" class="st0" width="4.3" height="22.1"/>
		
			<rect x="27.2" y="13.9" transform="matrix(-1.836970e-16 1 -1 -1.836970e-16 54.3424 -4.3411)" class="st0" width="4.3" height="22.1"/>
	</g>
</g>
</svg>
