<?xml version="1.0" encoding="utf-8"?>
<!-- Generator: Adobe Illustrator 21.1.0, SVG Export Plug-In . SVG Version: 6.00 Build 0)  -->
<!DOCTYPE svg PUBLIC "-//W3C//DTD SVG 1.1//EN" "http://www.w3.org/Graphics/SVG/1.1/DTD/svg11.dtd">
<svg version="1.1" id="Layer_1" xmlns="http://www.w3.org/2000/svg" xmlns:xlink="http://www.w3.org/1999/xlink" x="0px" y="0px"
	 width="82.9px" height="88.3px" viewBox="0 0 82.9 88.3" style="enable-background:new 0 0 82.9 88.3;" xml:space="preserve">
<style type="text/css">
	.st0{fill:#85468B;}
	.st1{fill:#EBEBEB;}
</style>
<g>
	<path class="st0" d="M39.9,68.8c0,1.3-1,2.3-2.3,2.3c-1.3,0-2.3-1-2.3-2.3c0-1.3,1-2.3,2.3-2.3C38.8,66.4,39.9,67.5,39.9,68.8
		 M68.8,63.3H6.3V19.5h62.5V63.3z M75,16.4c0-1.7-1.4-3.1-3.1-3.1H3.1c-1.7,0-3.1,1.4-3.1,3.1v54.7c0,1.7,1.4,3.1,3.1,3.1h68.8
		c1.7,0,3.1-1.4,3.1-3.1V16.4z M28.1,83.6h18.8v-7.8H28.1V83.6z M53.1,88.3H21.9v-3.1h31.3V88.3z"/>
	<g>
		<polygon class="st0" points="22.4,32.1 28,23.8 42,37.8 76.9,2.6 81.1,12.3 41.9,55.7 		"/>
		<path class="st1" d="M76.4,5.3l2.9,6.8L42,53.4L24.3,32l4-5.9L42,39.9L76.4,5.3 M77.4,0l-3.1,3.1L42,35.6L30.4,24l-2.6-2.6l-2,3
			l-4,5.9l-1.3,1.9l1.4,1.7l17.7,21.4l2.2,2.7l2.3-2.6L81.6,14l1.3-1.4l-0.8-1.8l-2.9-6.8L77.4,0L77.4,0z"/>
	</g>
</g>
</svg>
