<?xml version="1.0" encoding="utf-8"?>
<!-- Generator: Adobe Illustrator 21.1.0, SVG Export Plug-In . SVG Version: 6.00 Build 0)  -->
<!DOCTYPE svg PUBLIC "-//W3C//DTD SVG 1.1//EN" "http://www.w3.org/Graphics/SVG/1.1/DTD/svg11.dtd">
<svg version="1.1" id="Layer_1" xmlns="http://www.w3.org/2000/svg" xmlns:xlink="http://www.w3.org/1999/xlink" x="0px" y="0px"
	 width="79.5px" height="79.5px" viewBox="0 0 79.5 79.5" style="enable-background:new 0 0 79.5 79.5;" xml:space="preserve">
<style type="text/css">
	.st0{fill:#85468B;}
</style>
<path class="st0" d="M0,75.9l13.1-13.2l-9.5-9.5h22.6v22.6l-9.5-9.5L3.6,79.5L0,75.9z M62.7,66.3l-9.5,9.5V53.2h22.6l-9.5,9.5
	l13.2,13.2l-3.6,3.7L62.7,66.3z M53.2,26.4V3.8l9.5,9.5L75.9,0l3.7,3.7L66.3,16.9l9.5,9.5H53.2z M3.8,26.4l9.5-9.5L0,3.7L3.7,0
	l13.2,13.2l9.5-9.5v22.6H3.8z"/>
<g>
</g>
<g>
</g>
<g>
</g>
<g>
</g>
<g>
</g>
<g>
</g>
</svg>
