<?xml version="1.0" encoding="utf-8"?>
<!-- Generator: Adobe Illustrator 22.0.1, SVG Export Plug-In . SVG Version: 6.00 Build 0)  -->
<svg version="1.1" id="Layer_1" xmlns="http://www.w3.org/2000/svg" xmlns:xlink="http://www.w3.org/1999/xlink" x="0px" y="0px"
	 viewBox="0 0 414.4 303.7" style="enable-background:new 0 0 414.4 303.7;" xml:space="preserve">
<style type="text/css">
	.st0{fill:none;stroke:#6E6E6E;stroke-miterlimit:10;}
	.st1{fill:#6E6E6E;}
	.st2{fill:#FFFFFF;stroke:#6E6E6E;stroke-width:2.4113;stroke-miterlimit:10;}
	.st3{fill:#FFFFFF;}
</style>
<g>
	<g>
		<path d="M158,2.9v1.5h2.7v2H158v1.6h2.8v2h-5.2V0.9h5.2v2H158z"/>
		<path d="M163.6,0.9h2.4l1.9,4.9l2-4.9h2.4l1.4,9.2h-2.4l-0.7-5.3h0l-2.2,5.3h-1l-2.1-5.3h0l-0.8,5.3H162L163.6,0.9z"/>
		<path d="M182.4,10.1h-3l-2.3-3.5h0v3.5h-2.4V0.9h3.6c1.8,0,3.2,0.9,3.2,2.8c0,1.3-0.7,2.4-2,2.6L182.4,10.1z M177.2,5h0.2
			c0.8,0,1.7-0.1,1.7-1.1s-0.9-1.1-1.7-1.1h-0.2V5z"/>
		<path d="M190.1,10.1h-2.2V5.7h-0.7V3.9h0.7V2h2.2v1.9h1.3v1.8h-1.3V10.1z"/>
		<path d="M199.3,7c0,2.1-1.8,3.3-3.8,3.3c-2,0-3.8-1.2-3.8-3.3s1.8-3.3,3.8-3.3S199.3,4.9,199.3,7z M194.1,7c0,0.8,0.5,1.4,1.4,1.4
			S197,7.8,197,7c0-0.8-0.5-1.4-1.4-1.4S194.1,6.2,194.1,7z"/>
		<path d="M207.4,2.9v1.5h2.7v2h-2.7v1.6h2.8v2H205V0.9h5.2v2H207.4z"/>
		<path d="M213,0.9h2.4l1.9,4.9l2-4.9h2.4l1.4,9.2h-2.4l-0.7-5.3h0l-2.2,5.3h-1l-2.1-5.3h0l-0.8,5.3h-2.4L213,0.9z"/>
		<path d="M231.8,10.1h-3l-2.3-3.5h0v3.5h-2.4V0.9h3.6c1.8,0,3.2,0.9,3.2,2.8c0,1.3-0.7,2.4-2,2.6L231.8,10.1z M226.6,5h0.2
			c0.8,0,1.7-0.1,1.7-1.1s-0.9-1.1-1.7-1.1h-0.2V5z"/>
	</g>
	<g>
		<path d="M10.1,125.1v-3.5h2.4v9.2h-2.4v-3.8H6.7v3.8H4.3v-9.2h2.4v3.5H10.1z"/>
		<path d="M16.7,130.7h-2.4v-9.2h2.4V130.7z"/>
		<path d="M20.9,123.5v1.5h2.7v2h-2.7v1.6h2.8v2h-5.2v-9.2h5.2v2H20.9z"/>
	</g>
	<g>
		<path d="M358.7,116.9H354c0,0.9,0.5,1.4,1.4,1.4c0.5,0,0.8-0.2,1.1-0.6h2.1c-0.2,0.7-0.6,1.3-1.2,1.6s-1.3,0.5-2,0.5
			c-2.1,0-3.6-1.2-3.6-3.3c0-2.1,1.4-3.3,3.5-3.3c2.2,0,3.4,1.3,3.4,3.5V116.9z M356.6,115.6c-0.1-0.6-0.7-1-1.3-1
			c-0.6,0-1.2,0.3-1.3,1H356.6z"/>
		<path d="M360,110.4h3.7c2,0,3.3,0.9,3.3,3c0,2.2-1.2,3.1-3.3,3.1h-1.4v3H360V110.4z M362.4,114.7h0.4c0.9,0,1.7,0,1.7-1.1
			c0-1.2-0.8-1.2-1.7-1.2h-0.4V114.7z"/>
		<path d="M374.8,113.5c-0.5-0.7-1.3-1-2.1-1c-1.5,0-2.5,1.1-2.5,2.5c0,1.5,1,2.5,2.5,2.5c0.8,0,1.6-0.4,2.1-1v2.9
			c-0.8,0.2-1.4,0.4-2.1,0.4c-1.3,0-2.5-0.5-3.5-1.4c-1-0.9-1.5-2.1-1.5-3.5c0-1.3,0.5-2.5,1.4-3.4c0.9-0.9,2.2-1.5,3.5-1.5
			c0.8,0,1.5,0.2,2.2,0.5V113.5z"/>
		<path d="M384.2,119.6h-3l-2.3-3.5h0v3.5h-2.4v-9.2h3.6c1.8,0,3.2,0.9,3.2,2.8c0,1.3-0.7,2.4-2,2.6L384.2,119.6z M379,114.6h0.2
			c0.8,0,1.7-0.1,1.7-1.1s-0.9-1.1-1.7-1.1H379V114.6z"/>
		<path d="M354.7,127.1v1.5h2.7v2h-2.7v1.6h2.8v2h-5.2v-9.2h5.2v2H354.7z"/>
		<path d="M358.9,128h2.8l1.1,1.3l1.1-1.3h2.9l-2.6,2.9l3.1,3.4h-2.9l-1.6-1.9l-1.6,1.9h-2.9l3.1-3.4L358.9,128z"/>
		<path d="M372.4,130c-0.3-0.2-0.7-0.4-1.1-0.4c-0.9,0-1.5,0.7-1.5,1.5c0,0.9,0.6,1.5,1.6,1.5c0.4,0,0.8-0.2,1.1-0.4v1.9
			c-0.5,0.2-1,0.4-1.6,0.4c-1.9,0-3.4-1.4-3.4-3.3c0-2,1.5-3.4,3.5-3.4c0.5,0,1,0.1,1.5,0.4V130z"/>
		<path d="M376.2,124.1v4.7h0c0.5-0.7,1.1-1,2-1c1.6,0,2.4,1,2.4,2.6v3.8h-2.2V131c0-0.7-0.1-1.5-1-1.5c-0.9,0-1.2,0.8-1.2,1.5v3.2
			H374v-10.1H376.2z"/>
		<path d="M389.2,134.3h-2.2v-0.7h0c-0.4,0.6-1.2,0.9-1.9,0.9c-1.9,0-3.2-1.5-3.2-3.3c0-1.8,1.3-3.3,3.1-3.3c0.7,0,1.5,0.3,1.9,0.8
			V128h2.2V134.3z M384.2,131.1c0,0.8,0.5,1.4,1.4,1.4s1.4-0.6,1.4-1.4c0-0.8-0.5-1.4-1.4-1.4S384.2,130.4,384.2,131.1z"/>
		<path d="M393.1,128.8L393.1,128.8c0.5-0.8,1.2-1,2-1c1.7,0,2.4,1.1,2.4,2.6v3.9h-2.2v-3c0-0.6,0.1-1.6-1-1.6
			c-0.9,0-1.2,0.7-1.2,1.5v3.2h-2.2V128h2.2V128.8z"/>
		<path d="M406,133.6c0,2.7-1.3,3.7-3.6,3.7c-1.4,0-3.4-0.7-3.6-2.4h2.5c0.1,0.2,0.2,0.4,0.4,0.5c0.2,0.1,0.4,0.1,0.6,0.1
			c1.2,0,1.4-0.8,1.4-1.8v-0.3c-0.6,0.6-1.2,0.9-2,0.9c-1.8,0-3.1-1.4-3.1-3.2c0-1.8,1.3-3.4,3.2-3.4c0.7,0,1.4,0.2,1.8,0.9h0V128
			h2.2V133.6z M401,131.1c0,0.8,0.5,1.4,1.4,1.4s1.4-0.6,1.4-1.4c0-0.8-0.5-1.4-1.4-1.4S401,130.3,401,131.1z"/>
		<path d="M414.1,131.5h-4.7c0,0.9,0.5,1.4,1.4,1.4c0.5,0,0.8-0.2,1.1-0.6h2.1c-0.2,0.7-0.6,1.3-1.2,1.6s-1.3,0.5-2,0.5
			c-2.1,0-3.6-1.2-3.6-3.3c0-2.1,1.4-3.3,3.5-3.3c2.2,0,3.4,1.3,3.4,3.5V131.5z M412,130.2c-0.1-0.6-0.7-1-1.3-1
			c-0.6,0-1.2,0.3-1.3,1H412z"/>
	</g>
	<g>
		<path d="M325.2,264.1h3.4c2.6,0,4.7,2,4.7,4.6c0,2.6-2.1,4.6-4.7,4.6h-3.4V264.1z M327.6,271.2h0.5c1.4,0,2.6-0.8,2.6-2.6
			c0-1.6-1.1-2.6-2.6-2.6h-0.6V271.2z"/>
		<path d="M341.4,273.3h-2.2v-0.7h0c-0.4,0.6-1.2,0.9-1.9,0.9c-1.9,0-3.2-1.5-3.2-3.3c0-1.8,1.3-3.3,3.1-3.3c0.7,0,1.5,0.3,1.9,0.8
			V267h2.2V273.3z M336.4,270.1c0,0.8,0.5,1.4,1.4,1.4s1.4-0.6,1.4-1.4c0-0.8-0.5-1.4-1.4-1.4S336.4,269.4,336.4,270.1z"/>
		<path d="M345.5,273.3h-2.2v-4.4h-0.7V267h0.7v-1.9h2.2v1.9h1.3v1.8h-1.3V273.3z"/>
		<path d="M354.6,273.3h-2.2v-0.7h0c-0.4,0.6-1.2,0.9-1.9,0.9c-1.9,0-3.2-1.5-3.2-3.3c0-1.8,1.3-3.3,3.1-3.3c0.7,0,1.5,0.3,1.9,0.8
			V267h2.2V273.3z M349.6,270.1c0,0.8,0.5,1.4,1.4,1.4s1.4-0.6,1.4-1.4c0-0.8-0.5-1.4-1.4-1.4S349.6,269.4,349.6,270.1z"/>
		<path d="M332.8,287.9h-3l-2.3-3.5h0v3.5h-2.4v-9.2h3.6c1.8,0,3.2,0.9,3.2,2.8c0,1.3-0.7,2.4-2,2.6L332.8,287.9z M327.6,282.8h0.2
			c0.8,0,1.7-0.1,1.7-1.1s-0.9-1.1-1.7-1.1h-0.2V282.8z"/>
		<path d="M340.1,285.1h-4.7c0,0.9,0.5,1.4,1.4,1.4c0.5,0,0.8-0.2,1.1-0.6h2.1c-0.2,0.7-0.6,1.3-1.2,1.6s-1.3,0.5-2,0.5
			c-2.1,0-3.6-1.2-3.6-3.3c0-2.1,1.4-3.3,3.5-3.3c2.2,0,3.4,1.3,3.4,3.5V285.1z M338,283.8c-0.1-0.6-0.7-1-1.3-1
			c-0.6,0-1.2,0.3-1.3,1H338z"/>
		<path d="M343.5,282.3L343.5,282.3c0.4-0.6,1.2-0.9,1.9-0.9c1.9,0,3.2,1.6,3.2,3.4c0,1.8-1.3,3.3-3.1,3.3c-0.7,0-1.5-0.3-1.9-0.8
			v3.7h-2.2v-9.4h2.2V282.3z M343.4,284.8c0,0.8,0.5,1.4,1.4,1.4s1.4-0.6,1.4-1.4c0-0.8-0.5-1.4-1.4-1.4S343.4,284,343.4,284.8z"/>
		<path d="M357,284.8c0,2.1-1.8,3.3-3.8,3.3c-2,0-3.8-1.2-3.8-3.3s1.8-3.3,3.8-3.3S357,282.6,357,284.8z M351.8,284.8
			c0,0.8,0.5,1.4,1.4,1.4s1.4-0.6,1.4-1.4c0-0.8-0.5-1.4-1.4-1.4S351.8,284,351.8,284.8z"/>
		<path d="M362.3,283.2c-0.3-0.2-0.8-0.3-1.2-0.3c-0.3,0-0.7,0.1-0.7,0.4c0,0.4,0.7,0.5,1,0.5c1,0.2,1.8,0.7,1.8,1.9
			c0,1.6-1.5,2.3-3,2.3c-0.9,0-1.8-0.3-2.5-0.7l0.8-1.5c0.5,0.3,1.2,0.6,1.8,0.6c0.3,0,0.7-0.1,0.7-0.5c0-0.5-0.7-0.5-1.4-0.7
			c-0.7-0.2-1.4-0.5-1.4-1.6c0-1.5,1.4-2.2,2.8-2.2c0.7,0,1.4,0.1,2.1,0.4L362.3,283.2z"/>
		<path d="M367,279.2c0,0.7-0.6,1.2-1.2,1.2s-1.2-0.6-1.2-1.2s0.6-1.2,1.2-1.2S367,278.5,367,279.2z M366.9,287.9h-2.2v-6.3h2.2
			V287.9z"/>
		<path d="M371,287.9h-2.2v-4.4h-0.7v-1.8h0.7v-1.9h2.2v1.9h1.3v1.8H371V287.9z"/>
		<path d="M380.2,284.8c0,2.1-1.8,3.3-3.8,3.3c-2,0-3.8-1.2-3.8-3.3s1.8-3.3,3.8-3.3S380.2,282.6,380.2,284.8z M375,284.8
			c0,0.8,0.5,1.4,1.4,1.4s1.4-0.6,1.4-1.4c0-0.8-0.5-1.4-1.4-1.4S375,284,375,284.8z"/>
		<path d="M383.7,282.6L383.7,282.6c0.5-0.8,1.2-1.1,2-1.1h0.4v2.1c-0.3-0.2-0.6-0.2-0.9-0.2c-1.2,0-1.5,0.8-1.5,1.9v2.5h-2.2v-6.3
			h2.2V282.6z"/>
		<path d="M389.6,279.2c0,0.7-0.6,1.2-1.2,1.2s-1.2-0.6-1.2-1.2s0.6-1.2,1.2-1.2S389.6,278.5,389.6,279.2z M389.4,287.9h-2.2v-6.3
			h2.2V287.9z"/>
		<path d="M397.6,285.1h-4.7c0,0.9,0.5,1.4,1.4,1.4c0.5,0,0.8-0.2,1.1-0.6h2.1c-0.2,0.7-0.6,1.3-1.2,1.6s-1.3,0.5-2,0.5
			c-2.1,0-3.6-1.2-3.6-3.3c0-2.1,1.4-3.3,3.5-3.3c2.2,0,3.4,1.3,3.4,3.5V285.1z M395.5,283.8c-0.1-0.6-0.7-1-1.3-1
			c-0.6,0-1.2,0.3-1.3,1H395.5z"/>
		<path d="M403,283.2c-0.3-0.2-0.8-0.3-1.2-0.3c-0.3,0-0.7,0.1-0.7,0.4c0,0.4,0.7,0.5,1,0.5c1,0.2,1.8,0.7,1.8,1.9
			c0,1.6-1.5,2.3-3,2.3c-0.9,0-1.8-0.3-2.5-0.7l0.8-1.5c0.5,0.3,1.2,0.6,1.8,0.6c0.3,0,0.7-0.1,0.7-0.5c0-0.5-0.7-0.5-1.4-0.7
			c-0.7-0.2-1.4-0.5-1.4-1.6c0-1.5,1.4-2.2,2.8-2.2c0.7,0,1.4,0.1,2.1,0.4L403,283.2z"/>
	</g>
	<g>
		<path d="M10.9,273.3H8.5v-7.2h-2v-2h6.3v2h-2V273.3z"/>
		<path d="M15.1,268L15.1,268c0.5-0.8,1.2-1.1,2-1.1h0.4v2.1c-0.3-0.2-0.6-0.2-0.9-0.2c-1.2,0-1.5,0.8-1.5,1.9v2.5h-2.2V267h2.2V268
			z"/>
		<path d="M20.8,267v3.3c0,0.8,0.2,1.4,1.1,1.4s1.1-0.6,1.1-1.4V267h2.2v3.8c0,2.1-1.5,2.7-3.3,2.7c-1.9,0-3.3-0.6-3.3-2.7V267H20.8
			z"/>
		<path d="M31,268.6c-0.3-0.2-0.8-0.3-1.2-0.3c-0.3,0-0.7,0.1-0.7,0.4c0,0.4,0.7,0.5,1,0.5c1,0.2,1.8,0.7,1.8,1.9
			c0,1.6-1.5,2.3-3,2.3c-0.9,0-1.8-0.3-2.5-0.7l0.8-1.5c0.5,0.3,1.2,0.6,1.8,0.6c0.3,0,0.7-0.1,0.7-0.5c0-0.5-0.7-0.5-1.4-0.7
			c-0.7-0.2-1.4-0.5-1.4-1.6c0-1.5,1.4-2.2,2.8-2.2c0.7,0,1.4,0.1,2.1,0.4L31,268.6z"/>
		<path d="M35.8,273.3h-2.2v-4.4h-0.7V267h0.7v-1.9h2.2v1.9h1.3v1.8h-1.3V273.3z"/>
		<path d="M44.4,270.5h-4.7c0,0.9,0.5,1.4,1.4,1.4c0.5,0,0.8-0.2,1.1-0.6h2.1c-0.2,0.7-0.6,1.3-1.2,1.6s-1.3,0.5-2,0.5
			c-2.1,0-3.6-1.2-3.6-3.3c0-2.1,1.4-3.3,3.5-3.3c2.2,0,3.4,1.3,3.4,3.5V270.5z M42.3,269.2c-0.1-0.6-0.7-1-1.3-1
			c-0.6,0-1.2,0.3-1.3,1H42.3z"/>
		<path d="M50.4,272.6L50.4,272.6c-0.4,0.6-1.2,0.9-1.9,0.9c-1.9,0-3.2-1.5-3.2-3.3c0-1.8,1.3-3.3,3.1-3.3c0.7,0,1.5,0.3,1.9,0.8
			v-4.5h2.2v10.1h-2.2V272.6z M47.6,270.1c0,0.8,0.5,1.4,1.4,1.4s1.4-0.6,1.4-1.4c0-0.8-0.5-1.4-1.4-1.4S47.6,269.4,47.6,270.1z"/>
		<path d="M5.8,281c-0.4-0.4-1-0.6-1.6-0.6c-0.4,0-1,0.3-1,0.8c0,0.5,0.6,0.7,1.1,0.9l0.6,0.2c1.3,0.4,2.3,1,2.3,2.5
			c0,0.9-0.2,1.9-1,2.5c-0.7,0.6-1.7,0.9-2.6,0.9c-1.2,0-2.3-0.4-3.2-1l1-1.9c0.6,0.5,1.3,1,2.1,1c0.6,0,1.2-0.3,1.2-0.9
			c0-0.7-0.9-0.9-1.5-1c-1.5-0.4-2.5-0.8-2.5-2.6c0-1.9,1.3-3.1,3.2-3.1c0.9,0,2.1,0.3,2.9,0.8L5.8,281z"/>
		<path d="M7.6,281.6h2.6l1.7,3.2l1.6-3.2h2.5l-5,9.4H8.4l2.1-4L7.6,281.6z"/>
		<path d="M20.8,283.2c-0.3-0.2-0.8-0.3-1.2-0.3c-0.3,0-0.7,0.1-0.7,0.4c0,0.4,0.7,0.5,1,0.5c1,0.2,1.8,0.7,1.8,1.9
			c0,1.6-1.5,2.3-3,2.3c-0.9,0-1.8-0.3-2.5-0.7l0.8-1.5c0.5,0.3,1.2,0.6,1.8,0.6c0.3,0,0.7-0.1,0.7-0.5c0-0.5-0.7-0.5-1.4-0.7
			c-0.7-0.2-1.4-0.5-1.4-1.6c0-1.5,1.4-2.2,2.8-2.2c0.7,0,1.4,0.1,2.1,0.4L20.8,283.2z"/>
		<path d="M25.6,287.9h-2.2v-4.4h-0.7v-1.8h0.7v-1.9h2.2v1.9h1.3v1.8h-1.3V287.9z"/>
		<path d="M34.2,285.1h-4.7c0,0.9,0.5,1.4,1.4,1.4c0.5,0,0.8-0.2,1.1-0.6h2.1c-0.2,0.7-0.6,1.3-1.2,1.6s-1.3,0.5-2,0.5
			c-2.1,0-3.6-1.2-3.6-3.3c0-2.1,1.4-3.3,3.5-3.3c2.2,0,3.4,1.3,3.4,3.5V285.1z M32.1,283.8c-0.1-0.6-0.7-1-1.3-1
			c-0.6,0-1.2,0.3-1.3,1H32.1z"/>
		<path d="M37.6,282.4L37.6,282.4c0.5-0.7,1.2-1,2-1c0.9,0,1.7,0.4,2.1,1.2c0.4-0.8,1.3-1.2,2.1-1.2c1.6,0,2.1,1,2.1,2.5v4h-2.2v-3
			c0-0.6,0-1.7-0.9-1.7c-1,0-1.1,1-1.1,1.7v3h-2.2v-3c0-0.7,0-1.8-1-1.8c-1,0-1,1.1-1,1.8v3h-2.2v-6.3h2.2V282.4z"/>
		<path d="M51.8,283.2c-0.3-0.2-0.8-0.3-1.2-0.3c-0.3,0-0.7,0.1-0.7,0.4c0,0.4,0.7,0.5,1,0.5c1,0.2,1.8,0.7,1.8,1.9
			c0,1.6-1.5,2.3-3,2.3c-0.9,0-1.8-0.3-2.5-0.7l0.8-1.5c0.5,0.3,1.2,0.6,1.8,0.6c0.3,0,0.7-0.1,0.7-0.5c0-0.5-0.7-0.5-1.4-0.7
			c-0.7-0.2-1.4-0.5-1.4-1.6c0-1.5,1.4-2.2,2.8-2.2c0.7,0,1.4,0.1,2.1,0.4L51.8,283.2z"/>
	</g>
	<line class="st0" x1="95" y1="275.2" x2="190.4" y2="181.8"/>
	<line class="st0" x1="190.4" y1="181.8" x2="67.5" y2="126.8"/>
	<line class="st0" x1="190.4" y1="181.8" x2="190.4" y2="47.7"/>
	<line class="st0" x1="190.4" y1="181.8" x2="315" y2="127.9"/>
	<line class="st0" x1="190.4" y1="181.8" x2="286.2" y2="276.4"/>
	<path class="st1" d="M121.9,181.1c0-37.7,30.6-68.3,68.3-68.3c37.7,0,68.3,30.6,68.3,68.3s-30.6,68.3-68.3,68.3
		C152.5,249.5,121.9,218.9,121.9,181.1z"/>
	<g>
		
			<ellipse transform="matrix(0.2298 -0.9732 0.9732 0.2298 -71.2482 162.1754)" class="st2" cx="66.8" cy="126.1" rx="24.5" ry="24.5"/>
		<path class="st1" d="M80.7,134.3c-0.4,0.1-0.8,0.2-1.3,0.2c-0.4,0-0.9-0.1-1.3-0.2v1.9h-3.8v-19h1.2v-2.3H50v2.3h1.2v19H50v1.3
			h8.5v-3.7h2v3.7h1.2v-3.7h2v3.7H65v-3.7h2v3.7H83v-1.3h-2.3V134.3z M55.7,132.3H53v-2h2.7V132.3z M55.7,129H53v-2h2.7V129z
			 M55.7,125.8H53v-2h2.7V125.8z M55.7,122.5H53v-2h2.7V122.5z M55.7,119.3H53v-2h2.7V119.3z M59.1,132.3h-2.8v-2h2.8V132.3z
			 M59.1,129h-2.8v-2h2.8V129z M59.1,125.8h-2.8v-2h2.8V125.8z M59.1,122.5h-2.8v-2h2.8V122.5z M59.1,119.3h-2.8v-2h2.8V119.3z
			 M62.5,132.3h-2.8v-2h2.8V132.3z M62.5,129h-2.8v-2h2.8V129z M62.5,125.8h-2.8v-2h2.8V125.8z M62.5,122.5h-2.8v-2h2.8V122.5z
			 M62.5,119.3h-2.8v-2h2.8V119.3z M65.9,132.3h-2.8v-2h2.8V132.3z M65.9,129h-2.8v-2h2.8V129z M65.9,125.8h-2.8v-2h2.8V125.8z
			 M65.9,122.5h-2.8v-2h2.8V122.5z M65.9,119.3h-2.8v-2h2.8V119.3z M69.3,132.3h-2.8v-2h2.8V132.3z M69.3,129h-2.8v-2h2.8V129z
			 M69.3,125.8h-2.8v-2h2.8V125.8z M69.3,122.5h-2.8v-2h2.8V122.5z M69.3,119.3h-2.8v-2h2.8V119.3z M72.6,132.3h-2.6v-2h2.6V132.3z
			 M72.6,129h-2.6v-2h2.6V129z M72.6,125.8h-2.6v-2h2.6V125.8z M72.6,122.5h-2.6v-2h2.6V122.5z M72.6,119.3h-2.6v-2h2.6V119.3z
			 M78.2,133.5c0.4,0.1,0.8,0.2,1.3,0.2c0.4,0,0.9-0.1,1.3-0.2c1.5-0.5,2.6-2,2.6-3.7c0-2.2-1.7-3.9-3.9-3.9c-2.2,0-3.9,1.7-3.9,3.9
			C75.5,131.5,76.6,132.9,78.2,133.5 M77.1,129.3c0-0.1,0.1-0.2,0.2-0.2h1.5v-1.5c0-0.1,0.1-0.2,0.2-0.2h0.9c0.1,0,0.2,0.1,0.2,0.2
			v1.5h1.5c0.1,0,0.2,0.1,0.2,0.2v0.9c0,0.1-0.1,0.2-0.2,0.2h-1.5v1.5c0,0.1-0.1,0.2-0.2,0.2H79c-0.1,0-0.2-0.1-0.2-0.2v-1.5h-1.5
			c-0.1,0-0.2-0.1-0.2-0.2V129.3z"/>
	</g>
	<g>
		
			<ellipse transform="matrix(0.2298 -0.9732 0.9732 0.2298 101.2032 221.3641)" class="st2" cx="190.5" cy="46.7" rx="24.5" ry="24.5"/>
		<path class="st1" d="M204.3,55c-0.4,0.1-0.8,0.2-1.3,0.2c-0.4,0-0.9-0.1-1.3-0.2v1.9H198v-19h1.2v-2.3h-25.6v2.3h1.2v19h-1.2v1.3
			h8.5v-3.7h2v3.7h1.2v-3.7h2v3.7h1.2v-3.7h2v3.7h15.9v-1.3h-2.3V55z M179.3,52.9h-2.7v-2h2.7V52.9z M179.3,49.7h-2.7v-2h2.7V49.7z
			 M179.3,46.5h-2.7v-2h2.7V46.5z M179.3,43.1h-2.7v-2h2.7V43.1z M179.3,39.9h-2.7v-2h2.7V39.9z M182.7,52.9h-2.8v-2h2.8V52.9z
			 M182.7,49.7h-2.8v-2h2.8V49.7z M182.7,46.5h-2.8v-2h2.8V46.5z M182.7,43.1h-2.8v-2h2.8V43.1z M182.7,39.9h-2.8v-2h2.8V39.9z
			 M186.1,52.9h-2.8v-2h2.8V52.9z M186.1,49.7h-2.8v-2h2.8V49.7z M186.1,46.5h-2.8v-2h2.8V46.5z M186.1,43.1h-2.8v-2h2.8V43.1z
			 M186.1,39.9h-2.8v-2h2.8V39.9z M189.5,52.9h-2.8v-2h2.8V52.9z M189.5,49.7h-2.8v-2h2.8V49.7z M189.5,46.5h-2.8v-2h2.8V46.5z
			 M189.5,43.1h-2.8v-2h2.8V43.1z M189.5,39.9h-2.8v-2h2.8V39.9z M193,52.9h-2.8v-2h2.8V52.9z M193,49.7h-2.8v-2h2.8V49.7z
			 M193,46.5h-2.8v-2h2.8V46.5z M193,43.1h-2.8v-2h2.8V43.1z M193,39.9h-2.8v-2h2.8V39.9z M196.2,52.9h-2.6v-2h2.6V52.9z
			 M196.2,49.7h-2.6v-2h2.6V49.7z M196.2,46.5h-2.6v-2h2.6V46.5z M196.2,43.1h-2.6v-2h2.6V43.1z M196.2,39.9h-2.6v-2h2.6V39.9z
			 M201.8,54.1c0.4,0.1,0.8,0.2,1.3,0.2c0.4,0,0.9-0.1,1.3-0.2c1.5-0.5,2.6-2,2.6-3.7c0-2.2-1.7-3.9-3.9-3.9c-2.2,0-3.9,1.7-3.9,3.9
			C199.1,52.1,200.2,53.6,201.8,54.1 M200.7,50c0-0.1,0.1-0.2,0.2-0.2h1.5v-1.5c0-0.1,0.1-0.2,0.2-0.2h0.9c0.1,0,0.2,0.1,0.2,0.2
			v1.5h1.5c0.1,0,0.2,0.1,0.2,0.2v0.9c0,0.1-0.1,0.2-0.2,0.2h-1.5v1.5c0,0.1-0.1,0.2-0.2,0.2h-0.9c-0.1,0-0.2-0.1-0.2-0.2v-1.5h-1.5
			c-0.1,0-0.2-0.1-0.2-0.2V50z"/>
	</g>
	<g>
		
			<ellipse transform="matrix(0.2298 -0.9732 0.9732 0.2298 118.6176 402.0813)" class="st2" cx="313.3" cy="126.1" rx="24.5" ry="24.5"/>
		<path class="st1" d="M327.2,134.3c-0.4,0.1-0.8,0.2-1.3,0.2c-0.4,0-0.9-0.1-1.3-0.2v1.9h-3.8v-19h1.2v-2.3h-25.6v2.3h1.2v19h-1.2
			v1.3h8.5v-3.7h2v3.7h1.2v-3.7h2v3.7h1.2v-3.7h2v3.7h15.9v-1.3h-2.3V134.3z M302.2,132.3h-2.7v-2h2.7V132.3z M302.2,129h-2.7v-2
			h2.7V129z M302.2,125.8h-2.7v-2h2.7V125.8z M302.2,122.5h-2.7v-2h2.7V122.5z M302.2,119.3h-2.7v-2h2.7V119.3z M305.6,132.3h-2.8
			v-2h2.8V132.3z M305.6,129h-2.8v-2h2.8V129z M305.6,125.8h-2.8v-2h2.8V125.8z M305.6,122.5h-2.8v-2h2.8V122.5z M305.6,119.3h-2.8
			v-2h2.8V119.3z M309,132.3h-2.8v-2h2.8V132.3z M309,129h-2.8v-2h2.8V129z M309,125.8h-2.8v-2h2.8V125.8z M309,122.5h-2.8v-2h2.8
			V122.5z M309,119.3h-2.8v-2h2.8V119.3z M312.4,132.3h-2.8v-2h2.8V132.3z M312.4,129h-2.8v-2h2.8V129z M312.4,125.8h-2.8v-2h2.8
			V125.8z M312.4,122.5h-2.8v-2h2.8V122.5z M312.4,119.3h-2.8v-2h2.8V119.3z M315.8,132.3H313v-2h2.8V132.3z M315.8,129H313v-2h2.8
			V129z M315.8,125.8H313v-2h2.8V125.8z M315.8,122.5H313v-2h2.8V122.5z M315.8,119.3H313v-2h2.8V119.3z M319.1,132.3h-2.6v-2h2.6
			V132.3z M319.1,129h-2.6v-2h2.6V129z M319.1,125.8h-2.6v-2h2.6V125.8z M319.1,122.5h-2.6v-2h2.6V122.5z M319.1,119.3h-2.6v-2h2.6
			V119.3z M324.7,133.5c0.4,0.1,0.8,0.2,1.3,0.2c0.4,0,0.9-0.1,1.3-0.2c1.5-0.5,2.6-2,2.6-3.7c0-2.2-1.7-3.9-3.9-3.9
			c-2.2,0-3.9,1.7-3.9,3.9C322,131.5,323.1,132.9,324.7,133.5 M323.6,129.3c0-0.1,0.1-0.2,0.2-0.2h1.5v-1.5c0-0.1,0.1-0.2,0.2-0.2
			h0.9c0.1,0,0.2,0.1,0.2,0.2v1.5h1.5c0.1,0,0.2,0.1,0.2,0.2v0.9c0,0.1-0.1,0.2-0.2,0.2h-1.5v1.5c0,0.1-0.1,0.2-0.2,0.2h-0.9
			c-0.1,0-0.2-0.1-0.2-0.2v-1.5h-1.5c-0.1,0-0.2-0.1-0.2-0.2V129.3z"/>
	</g>
	<g>
		<circle class="st2" cx="94.1" cy="275.5" r="24.5"/>
		<path class="st1" d="M90.8,284.7l-8.9,0c-3.9,0-7-3.1-7-7c0-3.9,3.1-7,7-7h0H83l0.3-1c1-3.5,4.1-5.9,7.8-5.9c2.6,0,5,1.2,6.6,3.3
			l0.5,0.6l0.8-0.1c0.2,0,0.4,0,0.7,0c2.5,0,4.7,1.4,5.7,3.7l0.4,0.9l1-0.1c0.1,0,0.2,0,0.4,0c3.5,0,6.3,2.8,6.3,6.3
			c0,3.2-2.5,6-5.7,6.3l-4,0L90.8,284.7z"/>
		<path class="st3" d="M90.7,273.7c0-0.7,0-1.6,0.3-2.2c0.1-0.4,0.3-0.8,0.6-1c0.3-0.2,0.6-0.4,1.3-0.4c0.6,0,1,0.2,1.3,0.4
			c0.3,0.2,0.5,0.6,0.6,1c0.2,0.7,0.3,1.5,0.3,2.2H90.7z M93.5,278.4c0,0.4-0.3,0.7-0.7,0.7c-0.4,0-0.7-0.3-0.7-0.7v-2.2
			c0-0.4,0.3-0.7,0.7-0.7c0.4,0,0.7,0.3,0.7,0.7V278.4z M96.2,273.7c0-0.7,0-1.7-0.3-2.6c-0.2-0.6-0.5-1.2-1-1.6
			c-0.5-0.4-1.2-0.7-2.1-0.7c-0.9,0-1.6,0.3-2.1,0.7c-0.5,0.4-0.8,1-1,1.6c-0.3,0.9-0.3,1.9-0.3,2.6c-0.5,0.1-1,0.6-1,1.1v5
			c0,0.6,0.5,1.2,1.2,1.2h6.5c0.6,0,1.2-0.5,1.2-1.2v-5C97.3,274.3,96.8,273.8,96.2,273.7"/>
	</g>
	<g>
		<circle class="st2" cx="286.5" cy="275.4" r="24.5"/>
		<path class="st1" d="M286.5,267.1c-5.5,0-9.9-1.2-9.9-2.7c0-1.5,4.4-2.7,9.9-2.7s9.9,1.2,9.9,2.7
			C296.4,265.9,291.9,267.1,286.5,267.1 M286.5,261c-4.3,0-11.7,0.8-11.7,3.9v4.9c0,0,0,0.1,0,0.1c0,0.3,0.1,0.6,0.3,0.8
			c0.1,0.2,0.3,0.4,0.5,0.6c2,1.8,7.4,2.3,10.9,2.3c3.5,0,8.8-0.5,10.9-2.3c0.2-0.2,0.4-0.4,0.5-0.6c0.2-0.3,0.2-0.5,0.3-0.8
			c0,0,0-0.1,0-0.1v-4.9C298.1,261.8,290.8,261,286.5,261 M297.8,273c-0.9,0.6-2,1.1-3.5,1.4c-3.1,0.8-6.5,0.8-7.8,0.8
			s-4.8-0.1-7.8-0.8c-1.5-0.4-2.6-0.8-3.5-1.4c-0.1-0.1-0.2-0.1-0.3-0.2c0,0,0,0.1,0,0.1v4.9c0,0,0,0.1,0,0.1c0,0.3,0.1,0.6,0.3,0.8
			c0.1,0.2,0.3,0.4,0.5,0.6c2,1.8,7.4,2.3,10.9,2.3c3.5,0,8.8-0.5,10.9-2.3c0.2-0.2,0.4-0.4,0.5-0.6c0.2-0.3,0.2-0.5,0.3-0.8
			c0,0,0-0.1,0-0.1V273c0,0,0-0.1,0-0.1C298,272.9,297.9,273,297.8,273 M297.8,281.1c-0.9,0.6-2,1.1-3.5,1.4
			c-3.1,0.8-6.5,0.8-7.8,0.8s-4.8-0.1-7.8-0.8c-1.5-0.4-2.6-0.8-3.5-1.4c-0.1-0.1-0.2-0.1-0.3-0.2c0,0,0,0.1,0,0.1v4.9
			c0,3.1,7.3,3.9,11.7,3.9c4.3,0,11.7-0.8,11.7-3.9V281c0,0,0-0.1,0-0.1C298,281,297.9,281,297.8,281.1"/>
	</g>
	<path class="st3" d="M167.3,190.1c-1.1,0-2.2,0.5-3.1,1.3c-1.8,1.7-3,4.9-1.4,6.7c1.6,1.8,3.5,0.7,4.9,0.3
		c-0.4,1.4-1.6,2.7-0.2,4.5c1.4,1.8,3.5,0.7,4.9,0.3c-0.4,1.4-1.6,2.8-0.2,4.5c1.4,1.7,3.7,0.7,5.2,0.3c-0.6,1.5-1.9,3.2-0.3,5
		c1.6,1.8,5.3,0.9,7.1-0.8c1.8-1.7,1.9-4.5,0.3-6.1c-1.1-1.1-2.7-1.3-4.2-0.9c0.6-1.5,0.4-3.2-0.7-4.4c-1-1-2.5-1.3-3.9-1
		c0.4-1.4,0.2-2.9-0.8-3.9c-1-1-2.5-1.3-3.9-1c0.4-1.4,0.2-2.9-0.8-3.9C169.5,190.4,168.4,190.1,167.3,190.1z M183.1,161.9
		c-4.4,0-13.7,6.1-13.7,6.1s-2.6,1.7-6.4,0.2l-7.2-2.5v25.1c0,0,2.1,0.6,3.9,1.4c0.4-1.2,1.1-2.3,2-3.2c3.1-2.9,8.2-3,11-0.1
		c0.8,0.9,1.4,2,1.7,3.1c1.1,0.3,2.1,0.9,3,1.7c0.8,0.9,1.4,1.9,1.7,3.1c1.1,0.3,2.1,1,3,1.8c0.9,1,1.5,2.2,1.8,3.4
		c1.2,0.3,2.3,0.9,3.1,1.8c1.7,1.7,2.3,4.1,1.9,6.4c0,0,1,1.2,1.7,1.8c1.2,1.2,3.3,1.2,4.5,0s1.2-3.3,0-4.5c0,0-4.6-4.6-4.2-5.1
		c0.4-0.4,6.2,5.6,6.2,5.6c1.2,1.2,3.2,1.2,4.4,0c1.2-1.2,1.2-3.1,0.1-4.4c0,0-5.2-5.6-4.9-5.9c0.4-0.4,6.6,6.1,6.6,6.1
		c1.2,1.2,3.2,1.1,4.4-0.1c1.2-1.2,1.2-3.2,0-4.4c0,0-5.1-5.5-4.8-5.8c0.3-0.3,5.7,5,5.7,5c1.2,1.2,3.2,1.2,4.4,0
		c1.2-1.2,1.2-3.3,0-4.5c0,0-6.9-6.9-14-13.9c0,0-2-2.2-4.8-1c-1.9,0.9-4.5,2.1-6.4,3c-2.1,1.1-3.9,1.4-4.3,1.4
		c-4,0-7.2-3.2-7.2-7.2c0-2.6,1.4-4.9,3.4-6.2c2.9-2,9.6-5.5,9.6-5.5S187.6,161.9,183.1,161.9z M202,161.7c-0.8,0.1-1.6,0.3-2.4,0.8
		c-3.9,2-17.9,10-17.9,10c-2,1.2-2.6,3.8-1.5,5.8c1.1,1.9,3.5,2.6,5.4,1.7c0.2-0.1,7-3.6,10.1-5.2c3.3-1.8,5.4,0.3,5.4,0.3
		s12,12,15.4,15.3c2.2,2.1,5.2,1.1,6.2,1c1-0.1,5.7-1,5.7-1v-22c0,0-7.2,1.7-11.4,2.5c-1.3,0.3-2.9-0.6-2.9-0.6s-3.5-3-7.4-6.3
		C204.7,162.1,203.3,161.6,202,161.7z"/>
</g>
<g>
</g>
<g>
</g>
<g>
</g>
<g>
</g>
<g>
</g>
<g>
</g>
<g>
</g>
<g>
</g>
<g>
</g>
<g>
</g>
<g>
</g>
<g>
</g>
<g>
</g>
<g>
</g>
<g>
</g>
</svg>
